<?xml version="1.0" encoding="UTF-8"?>
<!DOCTYPE svg PUBLIC "-//W3C//DTD SVG 1.1//EN" "http://www.w3.org/Graphics/SVG/1.1/DTD/svg11.dtd">
<svg version="1.1" xmlns="http://www.w3.org/2000/svg" xmlns:xlink="http://www.w3.org/1999/xlink" x="0" y="0" width="750" height="780" viewBox="0, 0, 750, 780">
  <g id="ƒŒƒCƒ_x201e__x0081__x005b__x0020_1">
    <path d="M175.925,354.9 C173.765,353.1 172.325,350.94 171.965,348.06 C171.245,342.661 175.205,337.621 180.965,336.901 C184.205,336.541 187.445,337.621 189.605,340.141 L193.565,355.98 L176.285,354.9 z" fill="#F9ED40"/>
    <path d="M289.322,439.14 C285.362,419.7 272.043,396.66 265.203,384.06 C256.563,368.22 231.004,353.82 205.804,351.3 C206.884,349.5 207.244,347.34 206.884,345.541 C206.164,340.141 201.125,336.181 195.725,336.541 C190.325,337.261 186.365,342.301 186.725,347.701 C186.725,349.14 187.445,350.58 188.165,351.66 C159.726,355.98 130.566,379.02 124.807,399.54 C120.847,413.22 113.287,438.78 113.647,458.58 C113.647,470.099 121.927,486.299 144.246,490.259 C161.166,493.499 193.565,490.619 206.164,489.179 C218.764,487.739 250.803,483.419 267.003,476.579 C287.522,467.579 292.202,450.3 289.682,438.78 z" fill="#F0606B"/>
    <path d="M205.805,351.66 C206.884,349.86 207.244,347.7 206.884,345.9 C206.164,340.5 201.125,336.54 195.725,336.9 C190.325,337.62 186.365,342.66 186.725,348.06 C186.725,349.5 187.445,350.94 188.165,352.02 C159.726,356.34 130.567,379.38 124.807,399.9 C122.287,408.54 118.327,422.22 115.807,435.9 L116.887,436.26 C125.527,434.1 128.407,423.66 128.407,423.66 C130.567,416.1 132.726,409.26 134.166,404.58 C139.566,387.3 166.566,367.5 192.125,364.62 C217.684,361.74 248.643,375.06 257.643,390.54 C260.163,394.86 263.763,401.34 267.363,407.82 C267.363,407.82 272.403,417.54 281.402,417.9 C281.402,417.9 281.762,417.54 282.122,417.18 C276.723,404.22 269.523,391.98 265.203,384.06 C256.563,368.22 231.004,353.82 205.805,351.3 z" fill="#F9ED40"/>
    <path d="M286.082,427.62 C286.082,427.62 287.522,437.7 267.003,447.78 C198.245,481.619 119.047,457.14 114.367,448.14 C114.007,451.74 113.647,455.7 114.007,458.94 C114.007,470.459 122.287,486.659 144.606,490.619 C161.526,493.859 193.925,490.979 206.524,489.539 C219.124,488.099 251.163,483.779 267.363,476.939 C287.882,467.939 292.562,450.66 290.042,439.14 C289.322,435.18 288.242,431.22 286.802,427.26 z" fill="#EF4C51"/>
    <path d="M281.042,417.9 C272.043,417.9 267.003,407.82 267.003,407.82 C263.403,400.98 259.803,394.86 257.283,390.54 C248.283,374.7 217.324,361.74 191.765,364.62 C166.205,367.5 139.206,387.3 133.806,404.58 C132.366,409.62 130.206,416.46 128.046,423.66 C128.046,423.66 125.527,434.1 116.527,436.26" fill-opacity="0" stroke="#373435" stroke-width="5.999" stroke-linecap="round" stroke-linejoin="round"/>
    <path d="M289.322,439.14 C285.362,419.7 272.043,396.66 265.203,384.06 C256.563,368.22 231.004,353.82 205.804,351.3 C206.884,349.5 207.244,347.34 206.884,345.541 C206.164,340.141 201.125,336.181 195.725,336.541 C190.325,337.261 186.365,342.301 186.725,347.701 C186.725,349.14 187.445,350.58 188.165,351.66 C159.726,355.98 130.566,379.02 124.807,399.54 C120.847,413.22 113.287,438.78 113.647,458.58 C113.647,470.099 121.927,486.299 144.246,490.259 C161.166,493.499 193.565,490.619 206.164,489.179 C218.764,487.739 250.803,483.419 267.003,476.579 C287.522,467.579 292.202,450.3 289.682,438.78" fill-opacity="0" stroke="#373435" stroke-width="5.999" stroke-linecap="round" stroke-linejoin="round"/>
    <path d="M175.925,354.9 C173.765,353.1 172.325,350.94 171.965,348.06 C171.245,342.661 175.205,337.621 180.965,336.901 C184.205,336.541 187.445,337.621 189.605,340.141" fill-opacity="0" stroke="#373435" stroke-width="5.999" stroke-linecap="round" stroke-linejoin="round"/>
    <path d="M430.798,470.819 C430.798,470.819 354.12,485.219 309.482,511.139 C299.042,517.259 292.562,524.819 287.522,541.739 L283.202,525.539 C283.202,525.539 279.242,556.139 256.563,562.619 C241.084,567.299 233.884,557.939 233.884,557.939 L234.964,570.899 C239.284,618.418 245.403,681.778 247.203,703.737 C249.003,724.977 260.163,745.497 277.803,749.817 C295.442,754.497 317.761,745.497 323.521,718.857 L326.401,731.457 L330.001,768.897 L584.154,768.897 L587.394,735.417 L589.554,712.377 C592.074,743.697 619.073,754.497 636.353,749.817 C653.992,745.137 665.152,724.977 666.952,703.737 C669.112,681.778 674.872,617.698 679.552,570.179 L680.632,557.939 C680.632,557.939 673.792,567.299 657.952,562.619 C635.273,556.139 632.033,527.339 632.033,527.339 L628.433,543.539 C623.393,525.899 616.914,517.619 606.114,511.499 C561.475,485.939 482.637,470.819 482.637,470.819 L429.358,471.179 z" fill="#F16861"/>
    <path d="M263.403,741.177 C267.723,745.497 272.403,748.377 278.163,749.817 C285.722,751.617 294.002,751.257 301.562,748.017 C288.602,746.217 275.643,743.697 263.403,741.177 z" fill="#EF4C52"/>
    <path d="M594.594,673.138 C568.675,708.417 488.397,745.857 386.16,728.217 C345.841,721.377 322.441,698.337 322.441,698.337 L330.361,769.257 L584.874,769.257 L588.114,735.777 L594.594,673.138 z" fill="#EF4C52"/>
    <path d="M304.442,533.459 C323.161,515.099 359.16,505.019 379.32,499.619 L538.076,501.059 C559.675,507.539 588.834,514.019 606.114,526.619 C615.114,533.099 623.393,547.139 629.153,559.379 L632.033,551.459 C627.353,535.259 619.433,517.619 607.194,511.499 C588.114,501.779 565.075,492.059 543.475,485.579 L373.2,485.219 C351.601,492.059 327.481,500.699 309.122,511.499 C300.122,516.899 293.642,527.339 288.962,538.499 L289.682,555.779 C294.002,547.139 299.402,538.859 304.082,533.819 z" fill="#F8AFAA"/>
    <path d="M531.236,522.299 C511.796,578.818 474.717,640.378 459.238,640.378 C445.918,640.378 406.679,574.858 386.52,520.499 L531.236,522.299 z" fill="#FEFEFE"/>
    <path d="M432.238,448.5 C432.238,448.5 435.118,458.94 433.678,468.659 L429.719,470.099 C429.719,470.099 401.639,475.859 371.04,485.219 L389.4,530.579 C389.4,530.579 446.278,555.059 526.556,532.739 L543.476,484.859 C512.876,475.499 486.597,470.459 486.597,470.459 L481.197,467.579 C479.757,457.5 482.997,447.78 482.997,447.78 L432.238,447.78 z" fill="#FDD7BE"/>
    <path d="M435.118,447.42 L480.117,447.42 L480.477,463.619 C480.477,463.619 466.078,488.459 432.958,483.419 L435.478,447.42 z" fill="#E6A694"/>
    <path d="M359.88,402.06 C217.684,300.181 285.002,112.982 328.201,66.183 C418.919,-32.816 521.516,24.783 528.356,47.823 C528.356,47.823 553.915,32.343 588.114,66.183 C622.313,100.022 713.031,272.461 556.435,402.06 L360.24,402.06 z" fill="#87544B"/>
    <path d="M341.521,93.543 C421.079,6.783 506.037,35.943 531.596,61.143 C557.875,58.623 579.475,70.863 598.194,89.583 C606.114,97.503 617.274,113.342 627.713,134.222 C615.114,101.463 598.554,76.983 587.754,66.183 C553.555,32.343 527.996,47.823 527.996,47.823 C521.156,24.783 418.919,-32.816 327.841,66.183 C293.642,103.623 243.964,229.261 296.522,330.421 C286.802,303.781 289.682,261.301 289.682,260.941 C282.123,192.542 318.482,118.742 341.521,93.903 z" fill="#D5A899"/>
    <path d="M340.441,79.503 C340.441,79.503 380.76,113.702 430.078,115.862 C430.078,115.862 448.078,123.422 412.079,125.582 C376.08,127.742 337.921,122.702 315.241,108.302 L340.441,79.143 z" fill="#D5A899"/>
    <path d="M708.351,360.66 C710.151,356.7 711.951,353.82 714.831,353.82 L719.871,378.66 L723.111,376.5 C730.67,373.98 733.91,402.78 733.91,410.7 C733.91,418.62 713.751,444.18 713.031,444.9 C711.951,445.62 702.951,499.619 686.032,514.379 L681.712,557.939 C681.712,557.939 674.872,567.298 659.032,562.619 C636.353,556.139 633.113,527.339 633.113,527.339 L635.273,508.619 C635.273,508.619 606.834,485.219 599.994,466.139 C595.674,453.899 592.434,422.58 592.434,422.58 C592.434,422.58 603.234,418.98 606.834,426.18 C610.434,433.38 612.594,445.98 616.554,449.579 C622.313,455.339 630.233,454.619 630.233,454.619 C634.553,452.819 640.313,435.54 640.313,427.26 C640.313,418.98 634.193,402.42 628.433,400.62 C622.673,398.82 611.874,413.94 606.474,416.46 C604.674,417.18 596.394,419.7 593.874,416.1 C591.354,412.5 611.874,384.06 620.513,380.1 C629.153,376.14 642.473,383.7 645.353,387.3 C648.593,390.9 658.312,418.98 658.312,418.98 C658.312,418.98 684.592,391.98 686.032,384.42 C687.472,376.5 685.312,348.78 687.112,343.02 C690.352,333.66 697.911,327.901 700.431,329.341 C702.951,330.421 704.751,364.62 704.751,364.62 L707.631,360.3 z" fill="#FDD7BE"/>
    <path d="M234.244,557.939 C234.244,557.939 241.083,567.299 256.923,562.619 C279.602,556.139 283.562,525.539 283.562,525.539 L281.762,514.379 C281.762,514.379 277.083,494.939 265.923,486.299 C245.043,470.459 226.324,465.779 226.324,465.779 C226.324,465.779 216.244,429.78 209.404,418.26 C204.364,409.98 186.725,402.78 168.725,402.78 C158.286,402.78 150.366,412.14 151.086,424.74 C151.806,437.34 166.565,497.099 173.765,503.579 C180.245,509.699 213.364,531.299 234.604,536.339 C236.764,536.699 234.604,558.299 234.604,558.299 z" fill="#FDD7BE"/>
    <path d="M157.926,262.021 L145.326,166.262" fill-opacity="0" stroke="#F49DC3" stroke-width="18" stroke-linecap="round" stroke-linejoin="round"/>
    <path d="M117.967,276.421 L71.168,196.142" fill-opacity="0" stroke="#F49DC3" stroke-width="18" stroke-linecap="round" stroke-linejoin="round"/>
    <path d="M85.928,304.501 L8.89,246.181" fill-opacity="0" stroke="#F49DC3" stroke-width="18" stroke-linecap="round" stroke-linejoin="round"/>
    <path d="M410.999,475.139 L435.118,470.459 L433.319,483.059 C433.319,483.059 416.759,483.059 410.999,475.139 z" fill="#E6A694"/>
    <path d="M435.478,451.38 C435.478,451.38 436.558,475.859 432.238,485.219" fill-opacity="0" stroke="#373435" stroke-width="7" stroke-linecap="round" stroke-linejoin="round"/>
    <path d="M480.117,451.38 C480.117,451.38 479.397,474.059 482.997,484.859" fill-opacity="0" stroke="#373435" stroke-width="7" stroke-linecap="round" stroke-linejoin="round"/>
    <path d="M482.277,469.739 C482.277,469.739 562.555,485.219 607.194,511.139 C617.993,517.259 624.473,525.539 629.513,543.179" fill-opacity="0" stroke="#373435" stroke-width="7" stroke-linecap="round" stroke-linejoin="round"/>
    <path d="M432.238,470.819 C432.238,470.819 354.48,485.219 309.482,511.139 C299.042,517.259 292.562,524.819 287.522,541.739" fill-opacity="0" stroke="#373435" stroke-width="7" stroke-linecap="round" stroke-linejoin="round"/>
    <path d="M560.395,491.699 C559.675,493.139 545.995,530.219 528.356,568.738 C493.797,642.538 474.717,654.058 460.678,655.858" fill-opacity="0" stroke="#373435" stroke-width="5" stroke-linecap="round" stroke-linejoin="round"/>
    <path d="M460.678,655.498 L458.878,655.858 L457.438,655.498" fill-opacity="0" stroke="#373435" stroke-width="5" stroke-linecap="round" stroke-linejoin="round"/>
    <path d="M457.438,655.498 C443.398,654.058 424.319,642.538 389.4,568.019 C371.4,529.499 357.721,492.419 357.001,490.619" fill-opacity="0" stroke="#373435" stroke-width="5" stroke-linecap="round" stroke-linejoin="round"/>
    <path d="M545.995,486.659 C545.995,486.659 490.557,637.138 458.878,640.378 C427.199,637.138 372.12,487.019 372.12,487.019" fill-opacity="0" stroke="#373435" stroke-width="7" stroke-linecap="round" stroke-linejoin="round"/>
    <path d="M390.12,530.579 C390.12,530.579 453.478,557.579 527.636,532.019" fill-opacity="0" stroke="#373435" stroke-width="5.999" stroke-linecap="round" stroke-linejoin="round"/>
    <path d="M452.758,638.218 C452.758,638.218 459.958,642.898 460.318,656.218 C460.318,660.538 460.318,726.777 460.318,769.257" fill-opacity="0" stroke="#373435" stroke-width="5" stroke-linecap="round" stroke-linejoin="round"/>
    <g>
      <path d="M450.598,673.138 C450.598,676.738 447.718,679.618 444.118,679.618 C440.518,679.618 437.638,676.738 437.638,673.138 C437.638,669.538 440.518,666.658 444.118,666.658 C447.718,666.658 450.598,669.538 450.598,673.138 z" fill="#FEFEFE"/>
      <path d="M450.598,673.138 C450.598,676.738 447.718,679.618 444.118,679.618 C440.518,679.618 437.638,676.738 437.638,673.138 C437.638,669.538 440.518,666.658 444.118,666.658 C447.718,666.658 450.598,669.538 450.598,673.138 z" fill-opacity="0" stroke="#373435" stroke-width="7" stroke-linejoin="round"/>
    </g>
    <g>
      <path d="M450.598,734.697 C450.598,738.297 447.718,741.177 444.118,741.177 C440.518,741.177 437.638,738.297 437.638,734.697 C437.638,731.097 440.518,728.217 444.118,728.217 C447.718,728.217 450.598,731.097 450.598,734.697 z" fill="#FEFEFE"/>
      <path d="M450.598,734.697 C450.598,738.297 447.718,741.177 444.118,741.177 C440.518,741.177 437.638,738.297 437.638,734.697 C437.638,731.097 440.518,728.217 444.118,728.217 C447.718,728.217 450.598,731.097 450.598,734.697 z" fill-opacity="0" stroke="#373435" stroke-width="7" stroke-linejoin="round"/>
    </g>
    <path d="M359.88,402.06 C217.684,300.181 285.002,112.982 328.201,66.183 C418.919,-32.816 521.516,24.783 528.356,47.823 C528.356,47.823 553.915,32.343 588.114,66.183 C622.313,100.022 713.031,272.461 556.435,402.06" fill-opacity="0" stroke="#373435" stroke-width="7" stroke-linecap="round" stroke-linejoin="round"/>
    <path d="M587.754,358.14 L599.274,273.181 C603.234,269.221 610.794,258.061 626.633,260.581 C642.113,263.101 650.753,287.581 639.953,315.661 C629.153,343.38 605.754,358.14 587.754,358.14 z" fill="#FDD7BE"/>
    <path d="M599.634,273.181 C603.594,269.221 611.154,258.061 626.993,260.581 C642.473,263.101 651.113,287.581 640.313,315.661 C629.513,343.38 606.114,358.14 588.114,358.14" fill-opacity="0" stroke="#373435" stroke-width="7" stroke-linecap="round" stroke-linejoin="round"/>
    <path d="M329.281,357.78 L317.762,272.821 C313.802,268.861 306.242,257.701 290.402,260.221 C274.923,262.741 266.283,287.221 277.083,315.301 C287.882,343.02 311.282,357.78 329.281,357.78 z" fill="#FDD7BE"/>
    <path d="M317.761,272.821 C313.802,268.861 306.242,257.701 290.402,260.221 C274.923,262.741 266.283,287.221 277.083,315.301 C287.882,343.02 311.282,357.78 329.281,357.78" fill-opacity="0" stroke="#373435" stroke-width="7" stroke-linecap="round" stroke-linejoin="round"/>
    <path d="M621.233,313.141 C616.193,324.301 606.474,330.78 599.634,327.901 C592.794,325.021 591.354,313.861 596.394,302.701 C601.434,291.541 611.154,285.061 617.993,287.941 C624.833,290.821 626.273,301.981 621.233,313.141 z" fill="#E6A694"/>
    <path d="M296.162,313.141 C301.202,324.301 310.922,330.78 317.762,327.901 C324.601,325.021 326.041,313.861 321.001,302.701 C315.962,291.541 306.242,285.061 299.402,287.941 C292.562,290.821 291.122,301.981 296.162,313.141 z" fill="#E6A694"/>
    <path d="M598.194,303.061 C598.194,303.061 611.514,277.861 625.913,279.301" fill-opacity="0" stroke="#373435" stroke-width="7" stroke-linecap="round" stroke-linejoin="round"/>
    <path d="M318.841,303.421 C318.841,303.421 305.522,278.221 291.122,279.661" fill-opacity="0" stroke="#373435" stroke-width="7" stroke-linecap="round" stroke-linejoin="round"/>
    <path d="M315.962,236.821 L315.962,236.821 C308.762,286.141 323.521,362.1 350.881,399.54 C380.04,439.5 434.398,458.219 457.798,458.219 C481.197,458.219 535.556,439.5 564.715,399.54 C592.074,362.1 607.194,286.501 599.634,236.821 C592.434,187.502 520.436,118.742 511.076,111.542 C511.076,111.542 434.038,131.342 315.602,236.821 z" fill="#FDD7BE"/>
    <path d="M315.962,236.821 C308.762,286.141 323.521,362.1 350.881,399.54 C380.04,439.5 434.398,458.219 457.798,458.219 C481.197,458.219 535.556,439.5 564.715,399.54 C592.074,362.1 607.194,286.501 599.634,236.821 C592.434,187.502 520.436,118.742 511.076,111.542 C511.076,111.542 434.038,131.342 315.602,236.821" fill-opacity="0" stroke="#373435" stroke-width="7" stroke-linecap="round" stroke-linejoin="round"/>
    <path d="M457.798,347.34 C492.717,347.34 511.436,341.94 511.436,341.94 C511.796,357.42 499.197,430.86 457.798,430.86 C416.039,430.86 403.799,357.42 404.159,341.94 C404.159,341.94 423.239,347.34 457.798,347.34 z" fill="#EA7084"/>
    <path d="M458.158,362.46 C477.237,362.46 494.157,370.02 504.237,381.9 C509.636,364.98 511.796,348.421 511.796,341.941 C511.796,341.941 492.717,347.341 458.158,347.341 C423.599,347.341 404.519,341.941 404.519,341.941 C404.519,348.421 406.679,365.34 412.079,382.62 C421.799,370.38 439.078,362.46 458.518,362.46 z" fill="#C65F5F"/>
    <path d="M457.798,347.34 C492.717,347.34 511.436,341.94 511.436,341.94 C511.796,357.42 499.197,430.86 457.798,430.86 C416.039,430.86 403.799,357.42 404.159,341.94 C404.159,341.94 423.239,347.34 457.798,347.34" fill-opacity="0" stroke="#373435" stroke-width="7" stroke-linecap="round" stroke-linejoin="round"/>
    <path d="M457.798,321.061 L457.798,313.501" fill-opacity="0" stroke="#373435" stroke-width="7" stroke-linecap="round" stroke-linejoin="round"/>
    <path d="M496.677,196.502 C496.677,196.502 525.116,182.822 545.995,206.222" fill-opacity="0" stroke="#373435" stroke-width="7" stroke-linecap="round" stroke-linejoin="round"/>
    <path d="M418.919,196.502 C418.919,196.502 390.479,182.822 369.96,206.222" fill-opacity="0" stroke="#373435" stroke-width="7" stroke-linecap="round" stroke-linejoin="round"/>
    <path d="M381.84,300.541 C381.84,308.101 369.24,314.221 353.401,314.221 C337.561,314.221 324.961,308.101 324.961,300.541 C324.961,292.981 337.561,286.861 353.401,286.861 C369.24,286.861 381.84,292.981 381.84,300.541 z" fill="#F6988C"/>
    <path d="M590.994,300.541 C590.994,308.101 578.395,314.221 562.555,314.221 C546.715,314.221 534.116,308.101 534.116,300.541 C534.116,292.981 546.715,286.861 562.555,286.861 C578.395,286.861 590.994,292.981 590.994,300.541 z" fill="#F6988C"/>
    <path d="M430.798,263.821 C430.798,263.821 421.439,234.661 400.559,239.701 C383.28,243.661 368.16,264.541 366.72,278.581" fill-opacity="0" stroke="#373435" stroke-width="7.999" stroke-linecap="round" stroke-linejoin="round"/>
    <path d="M368.88,270.301 L358.081,266.701" fill-opacity="0" stroke="#373435" stroke-width="5" stroke-linecap="round" stroke-linejoin="round"/>
    <path d="M547.075,270.301 L557.875,266.701" fill-opacity="0" stroke="#373435" stroke-width="5" stroke-linecap="round" stroke-linejoin="round"/>
    <path d="M485.157,263.821 C485.157,263.821 494.877,235.381 515.756,240.421 C533.036,244.381 547.795,264.541 549.235,278.581" fill-opacity="0" stroke="#373435" stroke-width="7.999" stroke-linecap="round" stroke-linejoin="round"/>
    <path d="M705.471,364.62 C705.471,364.62 703.671,330.421 701.151,329.341 C698.631,328.261 690.712,333.661 687.832,343.021 C685.672,348.78 688.192,376.86 686.752,384.42 C685.312,392.34 659.032,418.98 659.032,418.98 C659.032,418.98 648.953,391.26 646.073,387.3 C642.833,383.7 629.873,376.14 621.233,380.1 C612.594,384.06 592.074,412.5 594.594,416.1 C597.114,419.7 605.394,417.18 607.194,416.46 C612.234,413.94 623.393,398.82 629.153,400.62 C634.913,402.42 641.033,418.98 641.033,427.26 C641.033,435.54 635.273,452.46 630.953,454.62 C630.953,454.62 623.033,455.34 617.273,449.58 C613.314,445.98 611.514,433.38 607.554,426.18 C603.954,418.98 593.154,422.58 593.154,422.58 C593.154,422.58 596.394,453.9 600.714,466.139 C607.554,485.219 635.993,508.619 635.993,508.619" fill-opacity="0" stroke="#373435" stroke-width="7" stroke-linecap="round" stroke-linejoin="round"/>
    <path d="M679.552,424.38 C679.552,424.38 701.511,402.42 701.871,398.1 C702.231,393.78 704.751,354.18 714.831,353.82" fill-opacity="0" stroke="#373435" stroke-width="7" stroke-linecap="round" stroke-linejoin="round"/>
    <path d="M714.471,353.82 L719.511,378.66" fill-opacity="0" stroke="#373435" stroke-width="7" stroke-linecap="round" stroke-linejoin="round"/>
    <path d="M695.031,431.58 C695.031,431.58 713.391,415.38 714.471,411.78 C715.551,408.18 715.551,379.02 722.751,376.5 C730.31,373.98 733.55,402.78 733.55,410.7 C733.55,418.62 713.391,444.18 712.671,444.9 C711.591,445.62 702.591,499.619 685.672,514.379 C685.672,514.379 671.272,667.378 668.032,704.097 C666.232,725.337 655.072,745.857 637.433,750.177 C619.793,754.857 593.154,744.057 590.634,712.737" fill-opacity="0" stroke="#373435" stroke-width="7" stroke-linecap="round" stroke-linejoin="round"/>
    <path d="M632.753,524.099 C632.753,524.099 634.553,553.979 657.232,560.459 C673.792,565.499 681.712,557.939 681.712,557.939" fill-opacity="0" stroke="#373435" stroke-width="7" stroke-linecap="round" stroke-linejoin="round"/>
    <path d="M309.122,680.698 C307.322,678.177 281.403,514.019 281.403,514.019 C281.403,514.019 276.723,494.579 265.563,485.939 C244.684,470.099 225.964,465.419 225.964,465.419 C225.964,465.419 215.884,429.42 209.044,417.9 C204.005,409.62 186.365,402.42 168.366,402.42 C157.926,402.42 152.166,411.78 152.886,424.38 C153.606,436.98 166.206,496.739 173.405,503.219 C180.605,510.059 219.124,534.899 240.004,536.699" fill-opacity="0" stroke="#373435" stroke-width="7" stroke-linecap="round" stroke-linejoin="round"/>
    <path d="M232.444,538.139 C236.764,582.778 245.403,676.378 247.923,703.737 C249.723,724.977 260.883,745.497 278.523,749.817 C296.162,754.497 318.481,745.497 324.241,718.857" fill-opacity="0" stroke="#373435" stroke-width="7" stroke-linecap="round" stroke-linejoin="round"/>
    <path d="M283.202,525.539 C283.202,525.539 279.243,556.139 256.563,562.619 C241.084,567.299 233.884,557.939 233.884,557.939" fill-opacity="0" stroke="#373435" stroke-width="7" stroke-linecap="round" stroke-linejoin="round"/>
    <path d="M605.034,571.258 L584.874,769.257" fill-opacity="0" stroke="#373435" stroke-width="7" stroke-linecap="round" stroke-linejoin="round"/>
    <path d="M310.922,571.258 L330.721,769.257" fill-opacity="0" stroke="#373435" stroke-width="7" stroke-linecap="round" stroke-linejoin="round"/>
    <path d="M190.325,408.9 C190.325,408.9 204.004,463.259 208.684,471.179" fill-opacity="0" stroke="#373435" stroke-width="5" stroke-linecap="round" stroke-linejoin="round"/>
    <path d="M171.965,403.5 C171.965,403.5 185.645,465.059 190.325,472.979" fill-opacity="0" stroke="#373435" stroke-width="5" stroke-linecap="round" stroke-linejoin="round"/>
    <path d="M158.286,409.26 C158.286,409.26 171.965,474.779 176.645,482.699" fill-opacity="0" stroke="#373435" stroke-width="5" stroke-linecap="round" stroke-linejoin="round"/>
    <path d="M635.273,508.259 C635.273,508.259 608.274,678.178 606.474,680.698" fill-opacity="0" stroke="#373435" stroke-width="7" stroke-linecap="round" stroke-linejoin="round"/>
  </g>
</svg>
