<?xml version="1.0" encoding="UTF-8"?>
<!DOCTYPE svg PUBLIC "-//W3C//DTD SVG 1.1//EN" "http://www.w3.org/Graphics/SVG/1.1/DTD/svg11.dtd">
<svg version="1.1" xmlns="http://www.w3.org/2000/svg" xmlns:xlink="http://www.w3.org/1999/xlink" x="0" y="0" width="450.072" height="364.553" viewBox="0, 0, 450.072, 364.553">
  <g id="Layer_1">
    <g>
      <path d="M450.072,336.49 C450.072,352.051 400.064,364.553 338.352,364.553 C276.64,364.553 226.632,351.918 226.632,336.49 C226.632,320.929 276.64,308.427 338.352,308.427 C400.064,308.427 450.072,320.929 450.072,336.49 z" fill="#FCBED0"/>
      <g>
        <g>
          <path d="M118.503,4.788 C143.241,2.66 167.979,7.315 194.047,7.98 C210.805,9.709 228.893,13.433 246.715,16.093 L247.247,16.625 L247.779,16.093 C262.675,19.152 275.31,22.211 290.073,24.206 L290.073,24.472 C293.132,23.94 295.526,26.733 297.92,27.398 C300.181,36.043 300.58,45.752 301.644,54.53 C302.043,68.362 302.841,83.125 304.038,97.09 C302.841,97.888 304.304,98.287 304.038,99.484 C304.57,104.139 304.969,110.922 304.836,115.577 C304.038,118.237 305.235,121.695 304.836,124.488 C304.57,146.832 307.363,170.24 306.033,191.786 C306.299,193.116 305.235,194.446 306.299,196.308 C305.9,197.106 305.9,198.702 306.299,199.633 C306.299,208.943 307.097,215.859 306.033,225.701 L305.235,226.499 C285.684,227.297 267.33,237.006 247.513,236.74 C233.149,239.267 218.519,239.666 204.421,244.055 C144.438,254.828 81.795,273.182 19.684,282.093 L5.985,284.62 C5.586,284.088 4.522,283.822 4.921,282.891 C7.581,280.896 4.788,277.305 4.921,274.246 C3.458,252.035 4.655,228.494 3.99,205.352 C0.798,170.639 4.921,134.995 1.729,101.08 C1.064,88.711 0.931,79.002 0.399,67.564 C1.33,65.968 -0,63.175 0.399,61.047 C0.532,42.693 2.128,23.541 -0,2.926 C2.128,1.596 4.256,2.261 6.118,1.064 C10.374,2.793 13.3,-0.532 17.689,0.532 C35.112,-0.798 52.668,0.665 72.219,2.394 C87.647,4.655 102.543,4.655 118.503,4.788 z" fill="#000000"/>
          <path d="M119.035,7.714 C141.512,5.586 169.043,10.108 193.249,10.773 C221.312,14.896 249.641,18.221 277.039,24.738 C283.955,25.669 290.472,25.403 296.191,29.26 C300.846,48.279 298.718,66.234 300.979,84.189 C303.107,124.222 303.24,163.856 303.772,205.618 C304.437,211.47 303.772,217.588 303.24,223.174 C301.644,223.972 299.915,223.972 298.186,224.238 C297.388,222.243 298.585,218.785 298.186,216.391 C296.59,188.727 298.718,160.664 297.654,132.335 L296.989,131.404 C297.521,110.789 295.659,89.775 293.797,68.628 C293.398,57.057 293.93,44.289 290.738,32.984 C289.94,31.521 288.876,32.186 287.945,32.585 C268.66,31.787 248.444,26.6 228.494,26.334 C201.362,24.206 172.767,23.408 143.906,21.546 C109.326,20.216 72.352,22.344 37.24,19.817 L18.62,18.487 C17.822,13.699 16.625,8.379 17.822,3.325 C37.107,1.33 55.993,4.522 76.342,5.586 C90.839,7.847 104.804,7.714 119.035,7.714 z" fill="#FFF284"/>
          <path d="M15.029,3.857 C14.364,15.162 15.827,28.196 16.758,40.033 C16.492,62.377 20.482,79.8 18.221,100.415 L17.955,118.902 C18.753,119.833 17.955,121.695 18.221,122.759 C18.753,163.324 19.285,201.362 21.28,241.794 C21.014,254.562 21.812,266 22.477,278.502 C17.689,279.034 13.167,280.63 8.512,281.029 C7.714,276.906 5.985,272.517 7.049,267.197 L6.65,266.399 C6.384,255.759 5.985,246.316 6.384,235.543 C5.586,234.08 6.916,232.617 6.118,231.021 C6.251,221.977 6.783,212.8 6.118,203.224 C5.054,200.697 5.985,198.303 5.32,195.643 C5.985,187.929 4.389,180.348 5.32,172.102 C5.453,167.58 4.788,164.388 5.852,159.467 C5.187,156.408 5.852,153.615 5.852,150.423 C5.852,127.281 3.857,105.868 3.458,83.79 C2.128,78.603 3.591,74.214 2.66,69.692 C3.591,55.594 2.793,39.102 3.458,22.61 C3.192,16.625 4.123,10.906 3.059,4.655 C6.517,2.793 11.039,4.921 15.029,3.857 z" fill="#FFF284"/>
          <path d="M128.212,23.94 C150.689,23.408 174.23,26.467 196.707,27.132 C197.505,43.358 199.234,65.569 198.702,80.864 C199.5,87.381 198.569,93.898 199.234,100.681 C201.096,130.074 200.032,161.063 200.165,190.855 L198.436,190.589 C192.318,186.732 184.737,184.471 178.752,180.481 L172.634,180.215 C170.107,178.885 167.58,176.358 164.255,177.422 L164.255,176.89 L160.132,179.018 C157.472,177.156 153.881,177.555 150.822,176.491 L148.827,177.023 C148.295,165.984 149.625,154.28 149.758,143.906 C153.881,143.906 158.802,142.842 162.659,143.241 C166.117,141.778 163.457,138.054 163.856,135.527 C163.723,126.217 164.388,116.508 163.324,107.331 C164.92,108.528 166.383,111.454 168.644,110.656 C172.235,105.735 176.092,100.814 180.348,96.026 L181.146,93.632 C172.767,82.327 164.122,70.49 155.477,59.185 C153.482,59.185 152.019,59.052 150.955,61.313 C151.753,61.845 150.157,62.51 150.024,63.574 L149.093,64.239 C142.842,63.441 134.862,62.244 128.345,64.239 C126.084,63.707 125.286,61.845 122.759,61.845 C118.237,67.83 111.72,73.815 108.661,79.534 C102.942,84.987 98.686,91.903 93.1,97.755 C94.43,102.41 99.085,103.607 101.479,107.065 L108.395,114.247 C109.991,114.247 111.321,113.316 112.252,111.454 C116.375,106.134 120.365,100.548 123.557,95.095 C121.695,107.863 122.493,120.897 117.971,133.798 C117.705,136.99 117.173,140.98 117.439,144.305 C121.163,146.832 126.749,144.97 130.34,144.837 L140.714,144.039 L141.246,144.837 C140.448,156.94 139.783,170.107 138.985,182.742 C129.675,184.87 119.434,186.732 110.789,189.126 C103.873,189.924 96.957,192.451 90.174,194.18 C89.775,194.978 88.711,194.978 89.11,196.175 C90.972,197.372 88.844,200.298 89.908,201.894 C88.312,204.022 90.706,210.805 89.642,215.061 C89.775,219.184 89.11,225.302 90.174,228.76 L89.642,229.691 C89.376,241.794 90.839,254.961 90.44,266.133 C69.027,270.522 47.88,274.911 26.6,278.103 L25.802,276.773 C26.201,269.724 24.206,261.079 24.605,254.429 C24.206,244.055 25.403,233.947 23.674,223.307 C23.275,213.997 23.275,204.953 22.61,196.042 C32.585,194.446 42.294,194.18 52.003,192.85 C68.761,191.387 85.12,190.722 102.144,188.594 C102.277,189.924 104.272,190.589 105.203,189.525 C105.07,187.264 109.858,187.663 107.597,185.402 L105.469,184.604 C104.272,176.225 105.868,167.314 104.272,159.467 C105.735,158.669 108.661,160.265 109.991,158.27 C107.198,150.29 107.331,139.65 104.006,131.138 C99.351,128.611 92.701,129.808 86.982,129.01 C84.721,121.562 86.184,109.991 76.874,106.932 C76.741,101.878 75.81,95.76 70.756,92.967 C65.436,90.839 61.313,92.435 56.126,94.43 C63.84,83.125 77.805,75.278 84.056,62.51 C83.923,58.387 84.854,52.136 82.327,48.545 C79.268,49.476 77.007,52.668 74.48,54.663 C55.86,69.027 40.565,84.987 21.546,101.08 L22.078,85.918 L21.546,85.253 C22.211,83.923 21.812,81.662 21.546,80.199 C20.615,69.426 21.28,55.86 20.083,44.821 C19.95,37.373 18.886,28.861 18.62,21.812 C55.328,23.674 89.775,24.605 128.212,23.94 z" fill="#CAEBF3"/>
          <path d="M208.145,27.797 C207.081,44.422 208.012,56.658 209.209,73.283 C208.411,75.544 209.608,78.47 209.209,80.731 C209.475,82.061 207.879,83.923 209.209,85.253 C208.278,123.557 208.81,161.728 207.613,200.165 C207.081,209.342 207.347,222.509 208.411,231.553 C208.278,235.011 206.15,236.607 207.613,240.198 L202.027,240.996 C201.495,229.159 201.761,217.721 202.293,205.485 C202.825,202.958 201.894,197.638 203.224,194.313 C201.495,186.466 204.421,178.087 202.692,170.506 L202.958,170.506 C204.288,133.931 200.564,98.42 201.229,62.51 C200.165,50.008 200.431,39.235 198.835,26.999 L199.367,26.733 L208.145,27.797 z" fill="#FFF284"/>
          <path d="M275.044,34.314 L288.743,35.245 C292.733,50.141 290.738,64.771 292.334,80.332 C294.329,96.425 295.127,114.38 295.127,131.271 L295.393,143.507 L294.595,143.507 C282.625,157.073 271.985,172.501 261.079,186.466 C262.143,190.19 263.34,192.983 262.941,196.973 C264.803,199.5 266.798,196.175 268.527,195.377 C277.571,185.535 286.482,177.023 295.393,166.383 C296.457,184.87 293.93,202.426 295.925,220.78 L295.393,224.637 C278.635,227.962 261.744,234.612 244.188,234.479 C232.883,235.543 220.913,237.006 210.273,240.065 C211.869,219.849 209.209,197.505 211.47,176.358 C210.805,159.334 212.534,138.985 211.47,120.897 C220.78,123.424 223.839,110.39 232.75,111.055 C233.947,110.523 234.213,109.991 235.41,110.523 C233.814,114.646 236.208,119.035 237.538,122.892 C238.602,134.995 236.075,145.369 233.681,157.073 C231.952,161.196 230.09,165.319 228.361,169.442 L228.893,170.506 C232.883,173.565 243.124,167.846 241.262,176.358 C241.661,178.885 241.262,182.476 242.459,184.737 C241.528,188.195 244.454,192.85 243.656,197.638 C239.666,200.165 234.612,200.963 232.351,206.017 C236.74,211.47 245.518,207.347 252.301,207.48 C256.424,206.15 260.547,206.948 264.005,205.086 C262.542,199.633 256.823,196.84 252.567,194.313 C252.7,186.732 252.7,179.284 251.636,171.836 C256.956,171.171 262.409,171.703 267.33,172.368 L268.128,171.437 C268.527,151.886 255.227,135.128 262.409,114.646 C264.537,115.577 265.867,120.099 268.394,116.907 C270.655,123.424 273.714,131.005 278.768,135.793 C280.098,136.458 281.428,135.66 282.093,134.463 C283.689,125.685 277.305,119.833 275.177,111.72 C276.241,110.523 275.044,109.592 274.645,108.528 C270.256,104.272 267.596,98.021 262.808,93.765 C263.207,93.1 264.67,92.967 265.335,92.967 C267.463,90.839 271.719,91.105 272.251,87.913 C270.788,85.386 266.665,88.711 266.665,84.588 C265.734,75.411 273.98,69.958 271.719,60.781 C271.453,55.993 268.793,50.939 264.803,48.146 C259.084,48.146 253.099,43.624 247.38,48.146 C242.725,52.668 236.74,58.121 238.07,65.436 C235.809,71.288 240.73,76.209 241.927,80.864 C242.459,83.923 248.311,83.79 246.05,87.248 C237.272,87.514 234.346,97.356 227.297,99.883 C227.829,103.341 224.105,104.937 221.844,106.932 C218.918,110.39 214.263,111.72 211.736,115.976 C211.337,113.183 211.337,110.789 211.736,107.863 C212.534,100.415 211.071,90.174 212.667,82.859 C218.253,75.012 225.036,66.899 231.287,59.185 C237.272,55.594 235.41,47.88 234.745,42.028 C233.947,40.964 233.415,39.501 232.085,40.698 C225.568,48.146 218.519,56.525 211.337,63.175 C210.539,50.939 210.539,39.235 211.071,28.196 C232.484,29.526 253.631,30.191 275.044,34.314 z" fill="#CAEBF3"/>
          <path d="M246.183,31.92 C245.518,35.112 247.912,38.304 246.715,41.23 C244.188,43.757 241.794,48.279 237.671,48.412 C236.474,46.151 237.006,42.56 236.208,39.767 L236.208,37.506 C238.868,34.846 241.661,31.388 245.518,31.122 L246.183,31.92 z" fill="#000000"/>
          <path d="M105.336,41.23 C102.144,47.082 96.159,53.2 90.44,57.19 C89.775,57.323 89.11,57.589 88.312,57.456 C87.248,53.067 88.711,49.742 87.115,45.087 C91.77,41.23 96.159,35.245 101.213,32.452 C103.74,34.314 103.474,38.57 105.336,41.23 z" fill="#000000"/>
          <path d="M244.055,40.033 C242.858,41.762 241.129,43.624 239.267,44.555 C239.4,42.161 238.07,39.501 239.533,37.506 C240.863,36.043 242.06,34.979 243.656,34.181 C243.922,35.644 244.321,38.304 244.055,40.033 z" fill="#FFFFFF"/>
          <path d="M101.612,39.368 C103.74,42.427 99.75,43.89 98.686,46.55 C96.159,48.678 94.297,51.604 91.105,53.333 C90.307,52.003 90.839,48.545 90.307,46.284 L100.149,35.777 C101.346,36.176 100.681,38.304 101.612,39.368 z" fill="#FFFFFF"/>
          <path d="M224.371,63.042 C220.913,68.628 215.061,73.549 212.002,79.268 C212.002,75.145 210.805,69.825 212.933,66.101 C218.785,58.786 225.302,52.535 231.819,45.087 C235.676,52.269 228.494,57.988 224.371,63.042 z" fill="#FFFFFF"/>
          <path d="M266.798,53.732 C270.788,60.914 268.128,71.421 264.005,78.337 C263.074,81.662 263.207,86.317 266.266,88.977 C264.936,90.839 262.01,89.775 260.015,89.775 C256.956,88.578 258.419,84.987 258.818,82.992 C251.104,76.342 257.355,66.633 254.695,59.052 C253.631,55.993 252.168,52.269 249.375,50.54 C254.03,46.284 258.685,50.407 264.005,50.54 L266.798,53.732 z" fill="#D13828"/>
          <path d="M250.971,57.323 C254.828,65.835 247.247,75.012 254.562,82.46 C251.769,81.928 248.577,83.391 246.183,81.13 C240.331,74.613 244.321,64.505 245.651,57.19 C246.449,55.86 246.715,53.466 248.311,53.067 L250.971,57.323 z" fill="#FFFF99"/>
          <path d="M75.411,70.224 C62.244,82.194 51.072,95.76 37.24,107.996 C31.92,114.114 27.531,118.769 21.546,124.355 C20.748,119.301 20.748,111.72 21.546,105.868 L26.334,100.016 C44.954,84.189 61.313,67.431 80.199,53.067 C83.125,59.451 80.199,65.17 75.411,70.224 z" fill="#FFFFFF"/>
          <path d="M241.927,61.047 L241.395,61.047 L242.326,57.988 C241.927,58.919 242.326,60.249 241.927,61.047 z" fill="#D13828"/>
          <path d="M177.555,93.499 C175.028,98.021 170.905,102.676 167.447,106.932 C165.851,106.666 165.186,103.74 163.324,102.809 C162.526,95.76 163.191,87.78 160.797,80.731 C160.531,80.066 158.935,80.864 158.669,81.795 C161.196,100.681 159.999,121.03 160.797,139.783 C147.364,141.113 133.798,140.182 120.498,141.778 C119.7,134.33 122.759,127.813 123.69,120.764 C124.355,107.73 127.813,94.43 126.483,81.396 L124.754,80.332 C123.557,81.928 123.69,85.253 123.69,87.514 C121.429,92.834 118.636,95.893 115.976,100.415 C113.449,103.74 110.922,106.799 108.395,110.257 L96.159,98.287 C104.671,86.849 113.848,75.677 123.291,64.638 C130.739,67.83 137.522,72.219 145.369,74.746 C149.625,71.288 151.088,66.101 154.28,61.845 C162.659,72.618 170.107,82.859 177.555,93.499 z" fill="#8FCB18"/>
          <path d="M147.497,67.165 C146.832,68.894 145.635,70.49 144.172,71.687 C140.448,70.49 136.724,68.229 133,66.367 C137.389,65.569 142.975,65.835 147.497,67.165 z" fill="#FFFF6B"/>
          <path d="M151.487,80.066 C152.418,83.391 151.088,86.051 148.428,87.647 C147.098,88.046 146.034,88.312 144.837,87.381 C143.241,86.051 142.576,85.12 141.778,83.258 C142.576,80.997 143.108,78.071 145.901,77.406 C148.162,76.342 150.29,78.204 151.487,80.066 z" fill="#000000"/>
          <path d="M149.492,82.327 C148.694,83.125 149.093,84.721 148.029,84.987 C146.965,85.253 145.502,84.588 144.438,84.189 C144.039,82.46 144.97,80.332 146.433,79.401 C148.827,78.603 148.827,80.997 149.492,82.327 z" fill="#FFFFFF"/>
          <path d="M255.493,88.445 C254.429,94.031 249.907,97.755 245.917,101.878 C245.518,99.085 245.252,96.425 246.183,93.765 C247.114,95.095 248.71,93.632 248.976,92.568 C248.976,90.573 248.71,87.913 249.242,85.652 C251.237,85.652 253.365,84.854 255.094,85.386 C254.296,86.45 255.227,87.514 255.493,88.445 z" fill="#FFFF99"/>
          <path d="M243.656,89.376 C243.124,94.696 242.725,99.617 243.124,105.602 C243.922,106.799 245.119,106.932 246.183,106.134 C250.306,101.745 255.094,97.09 257.887,91.77 C263.739,96.558 267.197,103.873 272.251,109.725 C269.99,111.188 268.527,112.518 266.665,114.513 C264.005,113.981 263.207,108.661 260.015,110.922 C252.301,130.872 263.473,148.561 264.803,168.378 C263.606,169.575 261.744,168.245 260.015,168.644 C251.37,168.378 240.863,169.309 232.484,167.846 C238.336,153.748 242.459,137.655 240.597,120.764 C234.213,113.848 241.794,106.267 240.597,98.42 C239.799,97.888 238.602,97.356 238.203,98.686 C238.735,101.346 237.272,103.873 236.74,106.267 C234.346,106.4 232.75,108.129 230.356,108.129 C230.356,104.405 229.425,103.873 229.824,100.548 C235.41,97.489 238.469,92.701 243.656,89.376 z" fill="#7BCEE1"/>
          <path d="M152.019,94.829 C152.817,96.558 152.418,98.952 151.487,100.548 C150.024,102.011 148.162,103.075 146.034,102.277 C144.172,101.08 143.906,99.085 142.842,97.755 C143.773,96.957 142.443,95.361 143.374,94.164 C144.305,93.233 144.97,92.036 146.3,91.637 C148.96,91.105 150.955,92.701 152.019,94.829 z" fill="#000000"/>
          <path d="M149.891,95.76 C150.423,97.622 149.359,99.351 147.896,100.016 C146.832,100.016 145.901,99.351 145.502,98.42 C145.236,96.691 145.369,95.361 146.699,94.164 C148.029,94.829 149.758,94.031 149.891,95.76 z" fill="#FFFFFF"/>
          <path d="M71.953,98.553 C72.884,100.947 73.017,103.474 73.15,106.134 L69.825,106.134 C70.091,103.208 69.559,101.479 68.362,99.085 C66.367,96.558 63.84,97.09 61.18,97.755 C58.786,99.883 57.456,102.676 57.323,105.868 C55.993,106.533 54.796,106.134 53.2,105.868 C53.333,101.878 53.599,98.553 57.057,96.558 C62.111,94.962 68.761,92.568 71.953,98.553 z" fill="#FED154"/>
          <path d="M50.407,106.134 C46.284,107.464 42.294,105.868 40.166,110.39 C36.974,117.306 36.043,123.025 35.112,131.005 C31.388,131.67 25.935,131.67 21.28,131.936 C20.349,128.478 24.206,126.483 26.068,123.823 C35.245,114.779 43.358,104.937 52.934,96.691 C52.402,99.218 50.274,102.543 50.407,106.134 z" fill="#CAEBF3"/>
          <path d="M66.633,106.134 L60.648,105.868 C60.249,103.474 61.047,101.479 63.042,100.282 C66.101,98.819 67.165,103.873 66.633,106.134 z" fill="#CAEBF3"/>
          <path d="M216.258,117.838 C215.46,117.705 215.194,118.636 214.263,118.37 L214.529,115.976 C218.652,111.853 222.908,109.193 227.164,105.336 L227.164,108.129 L216.258,117.838 z" fill="#FFFF99"/>
          <path d="M152.551,108.262 C153.349,110.523 152.152,113.05 150.423,114.779 C149.359,115.577 147.63,116.641 146.3,115.71 C144.438,115.178 143.906,113.183 143.374,111.454 C143.108,109.06 144.305,106.799 146.832,105.868 C148.827,105.602 151.62,106.001 152.551,108.262 z" fill="#000000"/>
          <path d="M149.625,108.794 C149.758,110.922 149.891,112.252 147.63,113.582 C146.699,113.449 145.768,112.518 145.768,111.454 C146.034,109.193 147.63,108.262 149.625,108.794 z" fill="#FFFFFF"/>
          <path d="M78.603,110.656 C79.002,111.454 79.8,111.853 79.534,113.05 C73.416,113.183 67.431,115.843 63.84,121.03 C61.579,117.705 57.988,115.976 54.264,114.779 L45.885,115.311 L45.885,110.257 C55.062,107.996 64.771,109.193 73.948,109.326 C75.278,109.326 77.14,109.858 78.603,110.656 z" fill="#CAEAC7"/>
          <path d="M43.092,111.454 C42.028,117.173 42.028,124.621 42.161,131.005 C41.097,132.069 39.501,130.739 38.304,131.271 C38.304,124.621 39.634,117.04 43.092,111.454 z" fill="#CAEAC7"/>
          <path d="M277.305,123.823 C279.034,125.818 279.034,128.877 279.3,131.67 C275.177,127.015 273.448,119.567 270.655,113.715 L272.251,112.518 C274.645,115.71 276.108,120.232 277.305,123.823 z" fill="#FFFF99"/>
          <path d="M82.061,120.498 L83.258,128.611 C71.687,129.276 60.648,130.473 47.747,131.404 L45.486,131.404 C44.289,126.882 45.486,122.36 45.486,118.237 C49.609,117.173 54.131,116.907 57.589,119.168 C60.515,121.163 61.579,124.621 63.308,127.547 C67.431,127.946 64.638,122.094 67.564,120.631 C70.889,117.04 82.061,111.587 82.061,120.498 z" fill="#CAEAC7"/>
          <path d="M100.548,132.202 C103.607,139.384 103.74,147.763 105.336,155.477 L103.607,156.275 C76.608,158.802 47.481,159.733 21.812,161.462 C21.945,151.886 22.211,144.172 21.28,135.128 C38.703,133.665 55.993,134.995 72.219,132.335 C81.662,132.202 91.238,131.138 100.548,132.202 z" fill="#FEF0CB"/>
          <path d="M146.566,144.438 C145.768,155.211 145.236,168.378 145.103,179.683 L146.566,180.88 C145.768,181.944 143.906,181.412 142.576,181.811 C142.709,170.506 143.241,156.674 144.039,144.438 C144.039,143.241 146.3,143.241 146.566,144.438 z" fill="#FFFF6B"/>
          <path d="M295.26,161.196 C286.083,172.368 276.374,182.21 266.133,193.116 C265.601,190.988 263.872,188.062 265.601,185.668 C275.709,173.299 283.955,158.935 295.26,147.364 L295.26,161.196 z" fill="#FFFFFF"/>
          <path d="M101.08,159.334 C101.08,168.378 102.144,175.959 102.011,184.471 C91.238,186.599 79.534,187.264 68.362,188.062 C52.934,190.19 37.506,191.121 22.211,192.052 C21.812,183.673 22.078,173.698 21.945,164.521 C39.767,161.994 60.382,163.59 78.47,161.329 C85.785,160.531 93.632,160.265 101.08,159.334 z" fill="#FEF0CB"/>
          <path d="M248.976,171.703 C249.774,179.816 249.242,188.594 249.508,197.106 C252.035,198.835 254.03,196.707 256.291,199.101 C257.355,200.697 259.616,201.229 259.882,203.224 C252.035,204.687 244.188,205.751 236.341,205.219 C239.267,200.564 249.242,201.761 247.114,194.446 L243.789,171.969 C245.119,171.437 247.38,171.437 248.976,171.703 z" fill="#FFFF99"/>
          <path d="M164.92,188.062 C164.255,188.993 161.861,188.195 160.664,187.796 C157.339,186.2 154.014,183.141 152.019,179.949 C158.27,179.018 161.196,184.87 164.92,188.062 z" fill="#FFFFFF"/>
          <path d="M176.491,187.397 C173.698,187.663 170.772,185.136 168.112,183.673 L165.585,179.816 C169.974,180.747 172.9,184.87 176.491,187.397 z" fill="#FFFFFF"/>
          <path d="M162.659,191.653 C164.122,189.658 166.649,192.584 167.979,190.19 L178.22,195.909 C172.102,196.84 164.255,197.505 157.871,195.377 C156.541,193.116 156.142,187.929 153.083,188.86 C151.354,190.722 152.152,193.382 151.62,195.643 C150.556,195.643 148.827,195.909 148.827,194.446 C149.359,190.722 148.694,186.067 150.29,182.476 C153.482,187.264 157.605,190.19 162.659,191.653 z" fill="#F55AAB"/>
          <path d="M199.234,193.781 C199.899,194.579 199.234,195.111 198.436,195.51 C195.909,196.308 193.382,196.973 190.589,197.106 C191.387,195.643 192.451,194.18 191.653,192.584 C186.732,189.525 181.146,187.53 176.89,183.673 L177.156,183.008 C184.338,187.397 192.185,189.791 199.234,193.781 z" fill="#FEF0CB"/>
          <path d="M146.566,185.402 C146.3,190.057 145.103,193.116 145.768,197.638 C147.763,199.101 150.689,197.904 152.95,198.569 C153.748,198.17 154.546,197.372 154.147,196.175 C156.807,200.431 162.792,199.766 167.314,199.766 L169.442,200.032 C164.122,202.559 156.674,202.16 150.556,204.288 C138.586,205.086 126.749,210.539 114.38,211.204 C107.464,205.618 100.814,200.697 93.1,195.909 C100.681,192.85 108.794,191.786 117.04,189.924 C116.774,191.254 116.375,192.85 116.242,194.047 C113.981,196.574 112.518,200.83 111.055,204.421 C113.183,205.751 115.311,205.884 117.173,207.746 L118.636,208.278 C127.414,207.347 134.197,203.889 142.975,202.958 L143.773,201.495 C142.709,196.042 141.113,190.988 139.251,185.934 L138.719,185.934 C139.916,184.737 142.177,185.136 144.039,184.737 C144.704,184.87 146.699,184.072 146.566,185.402 z" fill="#FEF0CB"/>
          <path d="M131.67,186.865 L132.734,186.599 L133.399,186.599 z" fill="#FFFFFF"/>
          <path d="M138.054,191.254 C138.453,194.047 139.65,197.106 140.448,199.899 C134.596,202.027 127.547,203.889 120.365,204.421 L120.764,192.318 C126.483,191.254 131.005,189.259 137.123,188.993 L138.054,191.254 z" fill="#FFFFFF"/>
          <path d="M180.614,189.924 C183.274,191.121 186.067,192.451 188.727,193.781 C188.195,196.308 185.269,195.776 183.407,196.574 C180.348,194.047 177.023,191.919 173.831,189.924 C175.959,190.988 178.353,190.057 180.614,189.924 z" fill="#F55AAB"/>
          <path d="M117.306,197.638 C117.971,199.5 117.173,201.761 117.04,203.357 L114.513,202.559 C114.912,200.431 116.242,199.367 117.306,197.638 z" fill="#FFFFFF"/>
          <path d="M198.835,241.661 C169.974,246.848 142.044,254.296 113.715,260.68 C113.582,245.518 113.183,229.824 114.513,215.194 C127.015,213.598 139.65,208.278 152.285,207.081 C159.068,205.086 166.649,204.953 173.166,202.293 C182.343,201.761 190.722,200.431 199.5,198.436 C199.234,213.066 199.101,226.499 198.835,241.661 z" fill="#FEF0CB"/>
          <path d="M111.188,212.534 C112.252,221.578 110.39,228.361 110.922,237.405 C110.124,242.193 111.055,247.247 110.39,251.503 C110.656,254.961 110.124,258.286 109.858,261.611 C104.139,262.409 98.952,264.138 93.1,264.936 C94.164,264.005 92.302,263.606 92.834,262.409 C93.1,241.661 91.637,218.918 91.903,198.702 C98.42,202.825 105.602,207.081 111.188,212.534 z" fill="#FEF0CB"/>
        </g>
        <g>
          <path d="M260.148,191.919 C265.468,190.456 270.921,192.85 275.31,195.909 C277.172,198.436 280.098,201.495 279.566,204.022 C280.896,205.485 279.832,207.879 279.034,209.475 L277.571,211.204 C279.965,215.726 284.221,219.982 283.157,225.568 C281.162,229.691 276.507,231.819 272.517,233.681 C272.783,236.208 272.118,237.804 270.921,239.533 C266,241.395 270.123,246.316 268.394,249.774 C266.665,258.02 266.133,266.532 260.015,272.251 C254.03,273.847 242.592,275.044 237.671,269.192 C234.346,265.867 234.878,261.079 233.415,256.956 C232.351,250.705 233.415,244.587 232.218,238.735 C228.361,237.272 223.041,234.346 222.908,229.159 C223.307,227.031 222.908,226.366 224.371,224.637 C228.76,222.11 224.105,219.982 223.839,217.056 L223.573,215.327 C223.839,215.327 223.972,215.194 224.105,215.061 C224.238,212.401 223.174,209.874 226.366,207.879 C226.499,207.347 227.164,205.086 228.494,204.288 C230.356,203.224 231.819,202.426 234.08,203.49 C235.543,200.963 236.075,197.638 237.937,195.111 C241.395,191.52 245.784,188.86 250.572,188.594 C254.03,188.062 258.552,188.594 260.148,191.919 z" fill="#000000"/>
          <path d="M257.488,192.717 C256.823,193.515 257.754,194.047 258.153,194.712 C263.34,193.914 269.325,193.781 273.315,197.239 C276.64,199.367 278.103,203.357 277.438,206.815 C277.039,209.741 271.719,209.076 274.379,212.135 C277.039,215.46 281.561,219.317 280.497,224.371 C278.635,228.095 274.512,230.489 270.522,231.154 C267.729,232.484 270.389,234.745 269.724,237.006 C261.345,243.257 250.572,242.193 241.661,239.666 C238.203,234.08 231.553,238.469 227.696,233.947 C225.834,232.351 224.504,229.824 225.169,227.43 C226.233,225.701 227.962,223.307 230.489,223.839 C231.287,223.174 231.819,222.509 231.553,221.445 C229.292,220.913 227.43,218.918 226.1,216.923 C224.637,213.199 226.366,209.608 228.627,206.815 C229.691,205.618 231.154,204.953 232.883,205.352 C233.947,206.15 234.878,208.012 236.474,207.081 L237.006,206.15 C237.272,202.16 236.873,198.17 240.331,195.377 C243.922,191.121 250.439,190.19 255.227,190.323 C256.424,190.456 257.222,191.387 257.488,192.717 z" fill="#4DAC27"/>
          <path d="M248.444,213.598 C249.242,215.194 246.981,216.657 248.444,218.253 C250.306,220.647 252.7,219.051 254.828,218.519 C257.488,217.721 256.557,213.199 259.616,215.194 C259.616,216.657 261.345,217.322 262.276,217.721 C263.872,217.987 265.601,215.194 267.197,217.189 C266.266,218.519 268.66,217.854 268.926,218.785 C271.453,217.987 271.852,212.8 274.246,216.258 C273.448,218.386 271.719,220.78 269.192,221.578 C266.665,221.578 265.069,217.455 262.675,220.381 C261.345,220.115 259.616,219.45 258.419,218.652 C256.025,220.647 252.833,223.174 249.774,222.11 C247.912,221.578 247.114,220.248 245.917,218.918 C245.784,217.588 245.119,215.593 246.449,214.662 C246.715,214.529 246.848,214.795 246.981,214.928 C246.715,213.864 247.513,213.465 248.444,213.598 z" fill="#FFFFFF"/>
          <path d="M245.252,243.523 C251.104,244.454 257.488,245.119 263.473,242.991 L265.468,243.257 C265.734,244.986 266.399,247.646 264.537,248.577 C255.493,250.971 244.321,250.971 236.208,247.646 C235.277,245.119 235.41,242.326 236.208,239.799 C239.001,241.395 242.06,243.124 245.252,243.523 z" fill="#F3399A"/>
          <path d="M264.404,251.636 C264.138,256.956 263.207,263.207 260.281,268.128 C257.089,272.251 251.104,270.522 246.183,270.788 C242.991,269.857 240.065,268.261 238.602,264.936 C237.405,260.281 235.809,255.493 236.075,250.572 C246.05,254.163 254.828,253.232 264.404,251.636 z" fill="#FAA5D1"/>
        </g>
        <g>
          <path d="M98.287,224.238 C99.617,224.504 100.814,222.908 102.41,222.509 C109.991,221.046 118.104,222.642 123.025,228.494 C125.951,234.213 123.158,238.868 120.498,243.789 C124.355,246.449 131.404,248.577 131.271,255.094 C130.473,261.478 125.419,266 120.365,269.325 C121.961,271.054 124.488,272.65 123.69,275.31 C123.69,277.97 121.828,279.433 120.365,281.295 L115.311,283.157 C115.178,293.265 113.715,304.171 104.937,311.22 C98.021,314.545 90.706,314.412 84.189,310.023 C77.273,303.772 77.539,293.265 77.007,285.684 C71.022,285.019 63.441,283.157 60.116,276.507 C58.786,273.847 59.185,270.522 60.648,268.128 C62.51,266.665 64.106,264.803 66.5,264.271 C60.781,259.882 59.318,253.232 60.249,246.316 C60.648,243.523 64.106,241.794 65.968,240.065 C68.229,239.533 70.756,238.735 73.017,239.799 C70.889,235.144 71.421,230.622 74.613,226.1 C77.273,221.445 83.923,218.253 89.509,217.455 C93.366,218.386 97.09,219.982 98.287,224.238 z" fill="#000000"/>
          <path d="M95.76,223.972 C97.622,226.233 94.031,229.159 97.755,230.09 C99.75,228.627 100.282,225.302 103.341,225.036 C109.06,223.573 115.71,225.036 120.099,228.494 C123.025,232.617 121.163,237.538 118.902,241.129 C118.104,242.725 113.981,243.922 116.508,245.917 C120.897,246.848 126.35,248.444 128.212,253.099 C128.744,259.35 124.222,264.404 118.636,267.064 C116.907,267.995 114.513,267.33 113.316,269.458 C114.247,272.65 120.099,270.123 120.764,274.246 C120.631,282.758 110.257,280.63 104.937,283.157 C98.42,285.285 88.977,284.62 81.529,282.625 C77.938,284.487 72.884,282.226 69.027,281.561 C65.303,280.63 61.845,277.172 61.446,273.182 C61.712,270.655 63.707,268.793 65.968,267.596 C67.697,265.867 72.884,268.128 71.953,264.005 C68.894,262.675 65.303,261.212 63.308,258.02 C62.377,254.562 61.047,250.572 62.377,246.848 C63.973,244.454 66.5,241.661 69.825,242.06 C72.352,241.661 75.145,244.321 77.273,243.922 C77.938,239.932 72.618,237.804 73.815,233.149 C74.48,227.962 78.869,223.839 83.391,221.578 C87.514,219.583 94.297,219.317 95.76,223.972 z" fill="#4DAC27"/>
          <path d="M112.385,254.163 C110.922,256.025 108.927,257.754 106.4,257.754 C105.203,257.887 104.272,257.089 103.341,256.557 C101.213,257.488 98.42,258.685 96.026,257.754 C93.898,253.099 92.036,259.882 89.908,259.483 C87.514,260.015 85.785,259.749 83.657,258.685 C81.529,256.557 82.194,253.631 83.125,251.237 C87.115,251.902 82.593,256.956 86.982,257.355 C90.307,257.222 92.435,254.03 94.031,251.503 C97.09,250.838 95.095,255.227 97.622,255.227 C100.947,256.69 103.474,250.04 105.469,254.695 C107.331,254.562 109.725,254.163 110.257,252.168 L110.789,250.838 C112.385,250.971 113.183,252.7 112.385,254.163 z" fill="#FFFFFF"/>
          <path d="M111.986,284.753 C111.587,285.817 111.853,286.482 111.72,287.812 C102.676,293.265 89.509,293.664 80.066,289.275 C79.534,288.477 79.933,287.413 79.8,286.482 C87.647,285.684 94.164,289.142 102.543,286.482 C105.336,285.684 108.661,285.418 111.454,284.221 L111.986,284.753 z" fill="#F3399A"/>
          <path d="M111.188,292.467 C110.257,299.649 107.065,308.294 99.218,310.156 C94.031,311.087 88.179,310.821 84.588,306.565 C81.928,302.442 80.465,297.654 80.066,292.6 C89.509,297.122 102.011,295.659 111.188,292.467 z" fill="#FAA5D1"/>
        </g>
        <g>
          <path d="M399.532,83.258 C395.941,70.889 389.557,59.052 377.72,51.205 C374.927,48.944 366.814,51.072 369.341,44.688 C368.676,42.028 367.479,38.171 364.553,37.506 C363.489,40.432 364.686,43.358 362.159,45.619 C359.632,41.496 355.642,37.772 351.386,35.511 C342.475,32.319 331.702,30.856 321.727,33.649 C309.491,34.447 298.053,44.422 294.462,56.525 C295.127,58.121 296.989,58.254 298.319,57.988 C301.91,52.535 308.161,48.811 314.013,47.614 C311.486,51.338 306.565,55.195 306.033,60.382 C304.57,62.909 302.708,66.234 303.506,68.495 C304.304,69.559 305.501,68.229 306.299,67.697 C306.831,70.49 305.368,73.815 304.703,76.741 C303.639,75.943 302.841,75.278 301.378,75.943 C301.112,77.007 301.91,77.805 302.708,78.337 C305.634,80.465 301.91,82.726 301.777,85.12 C299.915,90.839 295.127,86.716 291.27,88.711 C291.27,89.775 289.674,90.174 290.339,91.504 C292.334,95.627 288.344,97.622 286.748,101.08 C284.487,110.124 285.684,119.833 291.004,126.882 C292.334,129.01 294.994,130.207 295.526,132.468 C294.861,134.33 292.733,134.995 292.999,136.724 C289.807,139.916 288.743,144.704 287.812,148.827 C286.216,154.147 291.004,158.935 289.674,162.925 L289.408,162.925 C288.078,167.447 284.487,172.235 284.354,176.624 L284.088,176.624 C283.955,181.412 283.955,185.003 287.812,188.727 C290.073,188.86 293.531,192.052 295.925,189.126 C296.723,194.845 297.521,198.835 297.255,204.82 C296.989,207.347 294.329,210.805 296.59,212.401 C296.191,219.184 293.398,227.164 293.398,233.947 L293.132,233.947 C291.935,241.262 292.334,248.71 291.802,256.69 C295.127,257.355 297.521,257.222 300.713,258.685 C303.639,282.625 307.762,304.836 312.949,328.111 C309.624,332.766 306.166,337.288 303.905,342.475 C302.043,346.066 306.964,344.736 308.028,346.332 C307.496,346.598 307.496,347.13 307.23,347.263 C305.767,348.726 307.629,350.056 308.959,350.056 C316.407,349.524 322.126,345.268 328.776,342.874 C330.638,341.544 334.096,340.214 333.032,337.022 C328.244,311.353 323.456,286.615 320.131,260.148 C322.791,258.818 325.185,261.345 327.579,261.877 C328.377,261.079 329.84,260.946 329.707,259.749 C329.973,258.286 328.244,258.951 327.579,258.02 L324.121,243.39 C323.722,235.41 317.471,227.43 324.653,220.647 C323.988,210.406 325.451,200.963 326.382,190.456 L326.914,190.456 C329.441,197.904 330.106,206.416 332.633,214.662 C334.628,218.785 329.308,221.578 329.308,225.169 C326.781,228.095 331.303,228.228 332.899,229.691 C331.436,234.479 331.702,239.533 334.894,243.789 C334.894,245.119 331.835,246.316 331.037,247.646 C334.628,255.892 334.362,266.931 337.155,275.177 C337.953,277.039 339.815,278.103 341.677,278.768 C350.056,278.635 357.504,273.182 365.617,270.921 C370.671,268.527 376.124,265.468 380.513,261.877 C384.636,258.286 378.518,255.892 378.784,252.301 C373.198,246.449 372.932,237.804 366.814,232.484 C364.952,231.287 363.755,233.016 361.494,233.016 C360.829,230.09 358.169,228.228 356.972,225.701 C352.317,223.972 351.12,218.918 346.332,217.322 L346.598,216.391 C344.204,206.15 340.214,196.308 338.219,185.801 L338.751,185.269 C339.283,185.003 339.416,184.338 339.283,183.673 C337.155,174.23 335.559,163.989 331.835,154.812 L331.835,152.684 C357.504,152.551 382.242,139.251 393.68,116.508 L393.414,116.242 C400.729,107.73 400.596,94.43 399.532,83.258 z M313.614,149.093 C313.614,153.748 308.427,158.004 305.501,162.925 C304.171,163.856 302.974,166.117 301.777,166.649 C302.176,166.117 300.713,162.526 300.447,160.93 C303.506,159.201 306.964,156.674 307.363,153.349 C307.23,153.083 306.831,153.083 306.565,153.083 C308.56,152.285 306.565,150.556 306.831,149.226 C302.309,148.827 303.772,140.98 298.452,143.241 C297.255,141.512 298.851,139.118 299.649,137.655 C301.511,135.261 303.639,139.384 306.299,138.586 L307.762,139.517 C309.092,139.783 311.087,140.049 312.816,140.315 C312.683,142.842 305.102,142.709 309.757,145.768 C311.619,146.566 314.412,143.773 314.279,147.231 C313.348,147.231 314.279,148.561 313.614,149.093 z" fill="#000000"/>
          <path d="M359.765,47.88 C360.563,49.875 362.558,48.412 363.888,48.146 L366.415,43.624 C369.607,46.417 363.09,50.274 368.277,51.604 C383.306,52.934 392.217,68.761 396.074,81.529 C397.404,89.908 398.335,101.479 394.212,108.794 C386.365,129.808 366.149,146.699 343.672,149.093 L333.83,150.157 C339.948,146.566 346.199,142.31 349.923,136.192 C353.514,135.128 356.706,132.734 359.632,130.739 C359.366,129.143 358.302,127.414 356.307,128.478 C344.736,135.926 332.234,138.453 318.801,141.379 C328.909,135.261 340.48,123.956 344.204,111.986 C347.263,112.651 348.327,115.577 350.854,117.838 C351.253,117.705 351.652,117.572 352.051,117.572 C354.179,114.912 350.854,113.183 350.322,110.523 C346.199,95.494 339.815,79.401 344.204,63.175 C343.938,62.244 342.475,61.579 341.943,62.244 C336.357,78.47 342.608,94.43 346.332,109.06 C333.564,98.686 327.446,82.061 330.771,65.835 L332.899,58.653 L331.569,57.722 C329.84,58.52 329.574,60.914 329.042,62.776 L319.466,67.564 C321.86,60.515 326.382,56.791 331.835,52.402 C332.5,51.604 331.968,50.54 331.037,50.274 C322.525,52.801 314.811,57.722 307.23,62.909 C308.959,55.727 315.21,48.013 322.924,45.486 C323.722,44.821 324.653,44.156 323.988,43.225 L323.19,42.427 C314.146,44.821 304.57,47.215 298.186,54.131 C301.777,43.358 314.811,36.575 326.249,35.378 C338.219,33.782 353.78,35.112 359.765,47.88 z" fill="#BE340A"/>
          <path d="M319.732,61.047 C317.338,63.973 315.875,67.83 315.609,71.82 C319.333,72.751 322.126,68.628 325.451,67.298 L327.712,66.5 C326.648,72.086 327.18,79.002 327.712,84.721 C327.978,84.189 327.446,83.923 327.18,83.79 C326.116,83.657 325.717,84.189 325.717,82.726 C325.983,79.933 326.515,76.209 324.786,73.815 C322.791,72.485 321.594,71.288 319.2,71.82 C318.003,73.15 316.141,74.214 314.944,75.943 C317.338,80.332 320.131,70.623 322.658,76.209 C322.791,80.066 322.791,84.455 321.727,88.179 L323.589,89.642 C325.185,88.445 326.116,86.982 328.111,86.051 C331.835,94.297 333.963,104.405 341.81,109.725 C339.283,120.631 329.707,128.744 321.461,135.926 C316.939,140.847 310.688,136.724 304.969,135.128 C295.659,130.606 287.28,120.631 288.078,109.858 C287.945,104.405 289.94,99.75 292.866,95.627 L292.866,91.105 C295.26,91.504 296.989,92.435 299.383,91.371 C305.9,86.982 306.698,79.002 308.427,71.953 C309.624,68.894 307.629,63.707 312.018,62.909 L322.392,56.658 C322.525,57.855 320.131,59.185 319.732,61.047 z" fill="#FDDEDB"/>
          <path d="M384.237,67.298 C385.833,70.357 387.296,73.682 387.828,76.874 C387.163,77.539 386.764,78.204 385.833,77.805 L376.39,70.49 C374.262,69.692 373.331,73.15 371.336,71.288 L369.075,69.426 C365.75,73.017 361.76,77.539 361.893,82.593 C361.095,83.524 360.829,82.726 359.898,82.593 C358.302,76.475 357.504,68.096 358.568,61.712 C359.233,59.717 361.494,59.717 362.824,60.914 C363.755,62.643 364.952,62.377 366.415,63.175 C368.809,62.377 368.942,59.584 371.469,59.318 C377.188,58.387 380.912,63.175 384.237,67.298 z" fill="#BE340A"/>
          <path d="M383.572,72.618 C379.449,71.288 377.055,65.968 372.533,69.027 C370.671,68.894 369.208,66.101 367.346,67.564 C365.351,70.357 362.824,72.618 361.361,75.411 C360.829,71.288 360.031,67.298 361.095,63.042 C363.755,64.372 366.149,65.702 368.942,65.037 C370.538,62.377 373.065,61.313 375.991,62.51 C379.183,64.771 382.907,68.362 383.572,72.618 z" fill="#FFFFFF"/>
          <path d="M317.737,81.263 C318.269,84.987 316.141,88.312 314.412,91.371 L312.417,92.036 C314.146,95.494 309.89,98.42 309.624,102.144 C308.959,103.208 307.895,103.208 306.964,103.075 C304.437,101.479 306.166,98.42 306.432,96.159 C309.225,90.839 310.954,83.923 316.54,80.731 C316.939,80.997 317.205,81.396 317.737,81.263 z" fill="#000000"/>
          <path d="M302.575,111.321 C302.708,113.449 298.718,116.242 302.043,118.104 C303.639,118.902 305.368,118.237 306.565,116.907 C307.363,115.71 306.964,113.582 308.826,113.316 C311.619,113.449 309.89,115.976 309.624,117.439 C309.225,119.168 307.363,120.365 305.9,121.03 C303.506,121.828 301.511,120.764 299.516,119.833 C297.92,118.902 298.319,116.242 298.319,114.779 C298.851,112.917 300.713,110.922 302.575,111.321 z" fill="#000000"/>
          <path d="M298.452,134.862 C294.728,138.054 296.324,143.773 293.132,146.832 C295.659,149.359 299.383,141.379 300.846,147.098 C301.644,148.029 302.575,148.162 303.24,149.093 L303.506,148.827 C304.703,149.492 304.969,152.95 303.772,154.945 C302.442,158.137 298.585,157.738 295.659,158.536 C293.265,158.669 291.669,157.472 290.605,155.743 C288.344,147.763 291.935,139.916 297.255,134.197 C297.92,133.931 298.053,134.596 298.452,134.862 z" fill="#FDDEDB"/>
          <path d="M342.741,138.719 C340.081,142.576 335.559,145.502 331.303,147.364 C333.83,145.236 333.298,140.315 337.155,140.182 C338.618,139.384 340.746,139.65 341.943,138.719 L342.741,138.719 z" fill="#BE340A"/>
          <path d="M326.515,148.827 C325.85,147.763 326.914,145.103 326.515,143.507 C327.978,142.709 329.175,143.108 330.771,142.31 L326.515,148.827 z" fill="#FFFFFF"/>
          <path d="M323.855,149.093 L316.673,149.359 C316.407,148.029 315.875,145.635 317.205,144.837 C319.2,144.97 321.594,144.704 323.589,144.039 L323.855,149.093 z" fill="#FDDEDB"/>
          <path d="M321.062,153.349 C321.727,154.28 322.924,153.748 323.855,154.014 C318.136,159.866 312.284,166.383 313.348,175.427 C313.215,178.752 315.343,181.412 317.87,182.875 C322.924,181.811 320.264,188.328 323.589,189.525 C322.658,196.84 322.126,204.953 321.195,212.8 C314.678,213.598 308.826,210.406 302.708,210.672 C301.777,210.406 299.516,211.337 298.585,209.874 C302.043,198.436 296.324,186.732 297.654,176.225 C304.304,168.777 309.757,160.797 315.077,152.817 C317.338,152.551 319.732,151.487 321.062,153.349 z" fill="#000000"/>
          <path d="M329.574,155.743 C332.766,164.654 333.431,173.565 335.825,182.875 L335.559,184.338 L325.185,186.466 C322.791,184.072 322.791,180.747 322.126,177.555 C321.727,173.698 322.392,169.841 319.599,167.713 C316.407,168.511 320.131,170.506 319.333,172.501 C319.067,175.161 319.067,177.422 319.865,180.215 C318.003,180.614 317.072,178.885 316.54,177.555 C315.343,168.112 320.397,158.802 328.51,154.812 L329.574,155.743 z" fill="#FFFFFF"/>
          <path d="M298.186,162.26 C297.92,164.787 298.984,167.713 298.718,170.639 C292.866,174.895 294.063,182.875 295.393,188.328 C292.068,187.397 289.94,188.594 288.078,185.402 C282.891,176.358 291.935,169.176 292.068,160.531 C294.196,161.063 297.521,160.132 298.186,162.26 z" fill="#FDDEDB"/>
          <path d="M335.692,187.264 C337.288,192.451 337.687,198.303 340.214,202.825 C342.608,209.076 341.012,218.386 348.327,222.243 C349.258,223.44 349.923,225.169 349.258,226.765 C346.199,227.297 343.672,229.558 340.879,231.021 C340.081,231.686 339.283,231.021 338.618,230.489 C337.82,229.159 340.214,226.366 337.421,226.233 C336.623,226.233 336.224,227.031 336.091,227.696 C336.357,228.228 335.825,228.494 335.559,228.627 C334.495,227.297 332.766,227.297 331.303,226.632 C331.835,223.174 334.761,220.514 336.091,217.721 C333.564,208.012 331.968,197.904 329.042,188.328 C331.037,188.195 333.298,187.397 335.692,187.264 z" fill="#FDDEDB"/>
          <path d="M321.461,216.258 C323.323,220.115 319.732,224.371 317.87,227.829 C320.663,237.671 321.328,247.779 323.988,257.754 L294.861,254.695 C294.196,240.597 296.457,227.031 298.984,213.465 L299.782,213.199 C306.964,213.465 314.412,215.46 321.461,216.258 z" fill="#FF5A00"/>
          <path d="M358.435,234.745 C357.77,235.942 356.706,235.543 355.908,235.277 C355.775,232.75 354.312,230.489 352.583,228.361 L353.115,226.366 C355.908,227.829 358.302,231.154 358.435,234.745 z" fill="#F889C3"/>
          <path d="M353.115,236.873 C349.258,238.602 346.199,239.533 342.342,240.996 C340.879,238.868 339.815,236.873 340.48,234.479 C344.204,233.947 346.465,230.356 350.189,229.957 C352.583,231.154 352.583,234.479 353.115,236.873 z" fill="#FFFFFF"/>
          <path d="M337.687,234.213 C336.889,236.74 337.82,240.065 339.682,242.459 C338.485,243.124 336.357,243.922 336.091,241.661 C334.495,238.602 333.963,235.543 334.362,231.819 C335.958,232.351 337.155,232.883 337.687,234.213 z" fill="#F889C3"/>
          <path d="M366.016,236.208 C365.351,239.666 364.952,244.853 361.494,247.912 C358.435,245.119 354.977,247.779 351.652,247.646 C350.455,249.375 351.785,250.572 352.184,251.902 C347.13,251.636 340.879,251.503 336.224,249.109 C335.426,248.577 334.495,250.04 334.229,248.843 L334.229,248.045 C344.47,242.459 354.977,239.799 365.617,235.41 L366.016,236.208 z" fill="#F55AAB"/>
          <path d="M378.252,259.483 C372.4,266.133 364.154,268.128 356.706,271.719 C351.386,272.783 346.731,277.172 341.012,275.975 C338.618,271.586 337.421,266.665 337.288,261.345 L335.16,252.301 C340.613,253.498 346.332,254.828 352.45,254.961 C354.445,257.887 353.381,260.946 356.307,263.606 C359.499,262.276 363.888,263.473 366.149,260.68 C365.351,257.222 364.819,254.828 363.09,251.769 C364.952,248.178 368.277,245.252 368.809,240.996 C370.937,247.513 375.459,252.966 378.252,259.483 z" fill="#F55AAB"/>
          <path d="M361.76,256.025 C362.026,257.222 361.76,257.887 362.558,258.951 L357.77,260.547 C357.504,258.286 355.11,255.227 357.238,253.897 C356.44,252.966 354.711,251.902 354.711,250.838 C355.11,250.04 356.174,249.508 357.238,249.375 C360.696,249.508 359.898,253.897 361.76,256.025 z" fill="#FFFFFF"/>
          <path d="M304.038,258.286 C309.624,282.226 313.215,306.964 318.402,331.569 L315.21,331.569 C314.678,330.239 315.875,329.042 316.141,327.712 C310.156,306.166 307.496,283.024 302.708,261.345 C303.373,260.281 301.112,257.488 304.038,258.286 z" fill="#FDDEDB"/>
          <path d="M316.939,259.882 C317.737,261.345 317.737,264.138 317.87,266.266 C320.796,287.546 324.919,310.023 329.042,331.037 C326.914,333.032 323.722,333.032 320.929,333.564 C321.993,332.766 320.264,331.702 321.86,331.037 C316.141,307.23 313.082,282.093 306.964,258.685 L316.939,259.882 z" fill="#FDDEDB"/>
          <path d="M316.939,334.362 C314.944,337.82 312.949,340.746 309.757,343.406 L307.097,343.14 C309.358,339.948 311.22,331.037 316.939,334.362 z" fill="#FF0000"/>
          <path d="M329.84,339.017 C324.121,342.342 317.737,345.268 311.087,346.864 C312.417,345.933 313.481,343.805 314.944,342.342 C317.471,339.15 318.801,335.958 323.19,336.623 L329.574,335.027 C329.574,336.224 330.638,337.687 329.84,339.017 z" fill="#FF0000"/>
          <path d="M325.717,115.311 C325.185,116.508 322.791,116.508 320.264,115.444 C317.737,114.38 316.141,112.518 316.673,111.454 C317.205,110.257 319.599,110.257 322.126,111.321 C324.653,112.385 326.249,114.114 325.717,115.311 z" fill="#F889C3"/>
        </g>
      </g>
    </g>
  </g>
</svg>
