<?xml version="1.0" encoding="UTF-8" standalone="no"?>
<!-- Created with Inkscape (http://www.inkscape.org/) -->

<svg
   version="1.1"
   id="svg1"
   width="880"
   height="880"
   viewBox="0 0 880 880"
   sodipodi:docname="man-reads-book.svg"
   inkscape:version="1.3.2 (091e20e, 2023-11-25, custom)"
   xmlns:inkscape="http://www.inkscape.org/namespaces/inkscape"
   xmlns:sodipodi="http://sodipodi.sourceforge.net/DTD/sodipodi-0.dtd"
   xmlns="http://www.w3.org/2000/svg"
   xmlns:svg="http://www.w3.org/2000/svg">
  <defs
     id="defs1">
    <clipPath
       clipPathUnits="userSpaceOnUse"
       id="clipPath3">
      <path
         d="M 0,660 H 660 V 0 H 0 Z"
         transform="translate(-312.05521,-423.00881)"
         id="path3" />
    </clipPath>
    <clipPath
       clipPathUnits="userSpaceOnUse"
       id="clipPath5">
      <path
         d="M 0,660 H 660 V 0 H 0 Z"
         transform="translate(-320.45801,-333.42581)"
         id="path5" />
    </clipPath>
    <clipPath
       clipPathUnits="userSpaceOnUse"
       id="clipPath7">
      <path
         d="M 0,660 H 660 V 0 H 0 Z"
         transform="translate(-330.68751,-92.360402)"
         id="path7" />
    </clipPath>
    <clipPath
       clipPathUnits="userSpaceOnUse"
       id="clipPath9">
      <path
         d="M 0,660 H 660 V 0 H 0 Z"
         transform="translate(-193.9521,-385.43701)"
         id="path9" />
    </clipPath>
    <clipPath
       clipPathUnits="userSpaceOnUse"
       id="clipPath11">
      <path
         d="M 0,660 H 660 V 0 H 0 Z"
         transform="translate(-518.03521,-387.13181)"
         id="path11" />
    </clipPath>
    <clipPath
       clipPathUnits="userSpaceOnUse"
       id="clipPath13">
      <path
         d="M 0,660 H 660 V 0 H 0 Z"
         transform="translate(-428.36621,-152.3389)"
         id="path13" />
    </clipPath>
    <clipPath
       clipPathUnits="userSpaceOnUse"
       id="clipPath15">
      <path
         d="M 0,660 H 660 V 0 H 0 Z"
         transform="translate(-428.36621,-152.3389)"
         id="path15" />
    </clipPath>
    <clipPath
       clipPathUnits="userSpaceOnUse"
       id="clipPath17">
      <path
         d="M 0,660 H 660 V 0 H 0 Z"
         transform="translate(-495.08201,-222.9277)"
         id="path17" />
    </clipPath>
    <clipPath
       clipPathUnits="userSpaceOnUse"
       id="clipPath19">
      <path
         d="M 0,660 H 660 V 0 H 0 Z"
         transform="translate(-311.83251,-166.8945)"
         id="path19" />
    </clipPath>
    <clipPath
       clipPathUnits="userSpaceOnUse"
       id="clipPath21">
      <path
         d="M 0,660 H 660 V 0 H 0 Z"
         transform="translate(-218.6587,-508.99171)"
         id="path21" />
    </clipPath>
    <clipPath
       clipPathUnits="userSpaceOnUse"
       id="clipPath23">
      <path
         d="M 0,660 H 660 V 0 H 0 Z"
         transform="translate(-218.6587,-508.99171)"
         id="path23" />
    </clipPath>
    <clipPath
       clipPathUnits="userSpaceOnUse"
       id="clipPath25">
      <path
         d="M 0,660 H 660 V 0 H 0 Z"
         transform="translate(-517.28812,-319.25681)"
         id="path25" />
    </clipPath>
    <clipPath
       clipPathUnits="userSpaceOnUse"
       id="clipPath27">
      <path
         d="M 0,660 H 660 V 0 H 0 Z"
         transform="translate(-413.37701,-224.61721)"
         id="path27" />
    </clipPath>
    <clipPath
       clipPathUnits="userSpaceOnUse"
       id="clipPath29">
      <path
         d="M 0,660 H 660 V 0 H 0 Z"
         transform="translate(-400.89651,-126.05271)"
         id="path29" />
    </clipPath>
    <clipPath
       clipPathUnits="userSpaceOnUse"
       id="clipPath31">
      <path
         d="M 0,660 H 660 V 0 H 0 Z"
         transform="translate(-429.02931,-103.6758)"
         id="path31" />
    </clipPath>
    <clipPath
       clipPathUnits="userSpaceOnUse"
       id="clipPath33">
      <path
         d="M 0,660 H 660 V 0 H 0 Z"
         transform="translate(-429.65921,-236.24221)"
         id="path33" />
    </clipPath>
    <clipPath
       clipPathUnits="userSpaceOnUse"
       id="clipPath35">
      <path
         d="M 0,660 H 660 V 0 H 0 Z"
         transform="translate(-492.64161,-260.7568)"
         id="path35" />
    </clipPath>
    <clipPath
       clipPathUnits="userSpaceOnUse"
       id="clipPath37">
      <path
         d="M 0,660 H 660 V 0 H 0 Z"
         transform="translate(-194.98101,-590.44781)"
         id="path37" />
    </clipPath>
    <clipPath
       clipPathUnits="userSpaceOnUse"
       id="clipPath39">
      <path
         d="M 0,660 H 660 V 0 H 0 Z"
         transform="translate(-194.98101,-590.44781)"
         id="path39" />
    </clipPath>
    <clipPath
       clipPathUnits="userSpaceOnUse"
       id="clipPath41">
      <path
         d="M 0,660 H 660 V 0 H 0 Z"
         transform="translate(-318.50391,-544.25542)"
         id="path41" />
    </clipPath>
    <clipPath
       clipPathUnits="userSpaceOnUse"
       id="clipPath43">
      <path
         d="M 0,660 H 660 V 0 H 0 Z"
         transform="translate(-263.89791,-520.48541)"
         id="path43" />
    </clipPath>
    <clipPath
       clipPathUnits="userSpaceOnUse"
       id="clipPath45">
      <path
         d="M 0,660 H 660 V 0 H 0 Z"
         transform="translate(-242.5786,-540.83891)"
         id="path45" />
    </clipPath>
    <clipPath
       clipPathUnits="userSpaceOnUse"
       id="clipPath47">
      <path
         d="M 0,660 H 660 V 0 H 0 Z"
         transform="translate(-300.69871,-528.52151)"
         id="path47" />
    </clipPath>
    <clipPath
       clipPathUnits="userSpaceOnUse"
       id="clipPath49">
      <path
         d="M 0,660 H 660 V 0 H 0 Z"
         transform="translate(-306.27981,-561.10061)"
         id="path49" />
    </clipPath>
    <clipPath
       clipPathUnits="userSpaceOnUse"
       id="clipPath51">
      <path
         d="M 0,660 H 660 V 0 H 0 Z"
         transform="translate(-293.5918,-484.00831)"
         id="path51" />
    </clipPath>
    <clipPath
       clipPathUnits="userSpaceOnUse"
       id="clipPath53">
      <path
         d="M 0,660 H 660 V 0 H 0 Z"
         transform="translate(-284.5156,-517.51612)"
         id="path53" />
    </clipPath>
  </defs>
  <sodipodi:namedview
     id="namedview1"
     pagecolor="#ffffff"
     bordercolor="#000000"
     borderopacity="0.25"
     inkscape:showpageshadow="2"
     inkscape:pageopacity="0.0"
     inkscape:pagecheckerboard="0"
     inkscape:deskcolor="#d1d1d1"
     inkscape:zoom="0.67272727"
     inkscape:cx="439.25676"
     inkscape:cy="440"
     inkscape:window-width="1440"
     inkscape:window-height="830"
     inkscape:window-x="-6"
     inkscape:window-y="-6"
     inkscape:window-maximized="1"
     inkscape:current-layer="g1">
    <inkscape:page
       x="0"
       y="0"
       inkscape:label="1"
       id="page1"
       width="880"
       height="880"
       margin="123.1472 90.281334 31.132 92.112"
       bleed="0" />
  </sodipodi:namedview>
  <g
     id="g1"
     inkscape:groupmode="layer"
     inkscape:label="1">
    <g
       id="group-MC0">
      <path
         id="path2"
         d="M 0,0 C -31.881,33.4 -77.097,-11.929 -36.211,-51.588 L 52.56,-137.7 166.488,-176.166 c 27.389,-9.247 58.565,38.764 31.269,48.046 L 86.038,-90.137 Z"
         style="fill:#2f2825;fill-opacity:1;fill-rule:evenodd;stroke:none"
         transform="matrix(1.3333333,0,0,-1.3333333,416.0736,315.98827)"
         clip-path="url(#clipPath3)" />
      <path
         id="path4"
         d="m 0,0 -18.293,-111.859 -135.746,20.155 -43.992,130.564 c 5.485,42.816 26.3,63.172 73.05,69.565 l 27.304,3.733 C -54.031,118.127 -13.316,90.939 -2.105,48.337 1.916,33.058 2.728,16.691 0,0"
         style="fill:#463d3b;fill-opacity:1;fill-rule:evenodd;stroke:none"
         transform="matrix(1.3333333,0,0,-1.3333333,427.27733,435.43227)"
         clip-path="url(#clipPath5)" />
      <path
         id="path6"
         d="m 0,0 c 144.083,0 261.602,36.096 261.602,80.35 0,44.255 -117.519,80.348 -261.602,80.348 -144.087,0 -261.604,-36.093 -261.604,-80.348 C -261.604,36.096 -144.087,0 0,0"
         style="fill:#d7c9c4;fill-opacity:1;fill-rule:evenodd;stroke:none"
         transform="matrix(1.3333333,0,0,-1.3333333,440.91667,756.8528)"
         clip-path="url(#clipPath7)" />
      <path
         id="path8"
         d="m 0,0 c -9.339,51.278 -88.346,26.15 -68.38,-34.971 l 42.179,-129.123 107.603,-59.398 c 28.567,-15.768 63.832,38.587 35.295,54.233 l -95.392,52.293 z"
         style="fill:#2f2825;fill-opacity:1;fill-rule:evenodd;stroke:none"
         transform="matrix(1.3333333,0,0,-1.3333333,258.6028,366.084)"
         clip-path="url(#clipPath9)" />
      <path
         id="path10"
         d="m 0,0 c -4.21,-0.671 -8.417,-1.343 -12.628,-2.016 -15.636,-14.492 -42.896,-13.055 -46.914,-43.472 -35.723,8.466 -70.586,-11.477 -105.879,-17.216 -5.311,-4.137 -10.623,-8.274 -15.933,-12.41 42.469,-6.336 84.939,-12.672 127.408,-19.011 16.5,23.101 33,46.198 49.498,69.296 C -2.966,-16.552 -1.484,-8.276 0,0"
         style="fill:#fef0ea;fill-opacity:1;fill-rule:evenodd;stroke:none"
         transform="matrix(1.3333333,0,0,-1.3333333,690.7136,363.82427)"
         clip-path="url(#clipPath11)" />
      <path
         id="path12"
         d="m 0,0 -131.705,-14.063 30.562,172.769 129.55,13.349 z"
         style="fill:#f36530;fill-opacity:1;fill-rule:evenodd;stroke:none"
         transform="matrix(1.3333333,0,0,-1.3333333,571.15493,676.88147)"
         clip-path="url(#clipPath13)" />
      <path
         id="path14"
         d="M 0,0 C 14.308,1.241 24.145,7.508 29.27,19.081 L 59.828,191.847 C 54.03,182.91 44.536,175.823 28.407,172.055 Z"
         style="fill:#e9541e;fill-opacity:1;fill-rule:evenodd;stroke:none"
         transform="matrix(1.3333333,0,0,-1.3333333,571.15493,676.88147)"
         clip-path="url(#clipPath15)" />
      <path
         id="path16"
         d="m 0,0 -37.446,-51.508 30.558,172.766 35.292,50.795 z"
         style="fill:#d64520;fill-opacity:1;fill-rule:evenodd;stroke:none"
         transform="matrix(1.3333333,0,0,-1.3333333,660.10933,582.76307)"
         clip-path="url(#clipPath17)" />
      <path
         id="path18"
         d="M 0,0 C 13.335,0 24.21,15.563 24.21,34.648 24.21,53.732 13.335,69.297 0,69.297 -13.335,69.297 -24.21,53.732 -24.21,34.648 -24.21,15.563 -13.335,0 0,0"
         style="fill:#faba9c;fill-opacity:1;fill-rule:evenodd;stroke:none"
         transform="matrix(1.3333333,0,0,-1.3333333,415.77667,657.474)"
         clip-path="url(#clipPath19)" />
      <path
         id="path20"
         d="M 0,0 60.12,-13.274 48.15,-67.489 C 44.499,-84.023 27.988,-94.563 11.453,-90.913 -5.079,-87.262 -15.62,-70.749 -11.97,-54.215 Z"
         style="fill:#f28f62;fill-opacity:1;fill-rule:evenodd;stroke:none"
         transform="matrix(1.3333333,0,0,-1.3333333,291.54493,201.3444)"
         clip-path="url(#clipPath21)" />
      <path
         id="path22"
         d="M 0,0 60.12,-13.274 49.22,-62.638 C 24.096,-59.883 2.698,-41.426 -3.752,-16.997 Z"
         style="fill:#e67748;fill-opacity:1;fill-rule:evenodd;stroke:none"
         transform="matrix(1.3333333,0,0,-1.3333333,291.54493,201.3444)"
         clip-path="url(#clipPath23)" />
      <path
         id="path24"
         d="m 0,0 c 8.845,0 14.014,-14.646 11.55,-32.711 -2.465,-18.066 -11.633,-32.71 -20.474,-32.71 -8.845,0 -14.016,14.644 -11.549,32.71 C -18.009,-14.646 -8.843,0 0,0"
         style="fill:#faba9c;fill-opacity:1;fill-rule:evenodd;stroke:none"
         transform="matrix(1.3333333,0,0,-1.3333333,689.71747,454.32427)"
         clip-path="url(#clipPath25)" />
      <path
         id="path26"
         d="m 0,0 c -3.144,-1.195 -6.665,0.383 -7.861,3.527 -1.199,3.145 0.38,6.667 3.526,7.863 l 91.677,34.997 c 3.145,1.197 6.667,-0.382 7.865,-3.529 1.197,-3.143 -0.382,-6.666 -3.528,-7.863 z"
         style="fill:#2f2825;fill-opacity:1;fill-rule:evenodd;stroke:none"
         transform="matrix(1.3333333,0,0,-1.3333333,551.16933,580.5104)"
         clip-path="url(#clipPath27)" />
      <path
         id="path28"
         d="m 0,0 c -3.144,-1.196 -6.667,0.383 -7.864,3.528 -1.196,3.144 0.381,6.665 3.527,7.864 l 91.679,34.995 c 3.143,1.197 6.666,-0.381 7.863,-3.527 1.196,-3.143 -0.383,-6.668 -3.526,-7.863 z"
         style="fill:#2f2825;fill-opacity:1;fill-rule:evenodd;stroke:none"
         transform="matrix(1.3333333,0,0,-1.3333333,534.52867,711.92973)"
         clip-path="url(#clipPath29)" />
      <path
         id="path30"
         d="m 0,0 c -3.147,-1.198 -6.667,0.383 -7.864,3.526 -1.199,3.147 0.381,6.667 3.527,7.865 L 87.34,46.387 c 3.144,1.198 6.666,-0.382 7.864,-3.527 1.197,-3.146 -0.382,-6.667 -3.528,-7.863 z"
         style="fill:#2f2825;fill-opacity:1;fill-rule:evenodd;stroke:none"
         transform="matrix(1.3333333,0,0,-1.3333333,572.03907,741.7656)"
         clip-path="url(#clipPath31)" />
      <path
         id="path32"
         d="m 0,0 -12.674,-98.025 26.894,-18.745 -3.479,-5.004 -29.919,20.851 13.15,101.685 z"
         style="fill:#2f2825;fill-opacity:1;fill-rule:evenodd;stroke:none"
         transform="matrix(1.3333333,0,0,-1.3333333,572.87893,565.0104)"
         clip-path="url(#clipPath33)" />
      <path
         id="path34"
         d="m 0,0 -12.676,-98.025 26.896,-18.746 -3.479,-5.001 -29.918,20.851 13.148,101.686 z"
         style="fill:#2f2825;fill-opacity:1;fill-rule:evenodd;stroke:none"
         transform="matrix(1.3333333,0,0,-1.3333333,656.85547,532.32427)"
         clip-path="url(#clipPath35)" />
      <path
         id="path36"
         d="m 0,0 118.952,6.673 6.369,-73.677 c 2.825,-32.657 -21.628,-60.876 -54.339,-62.711 -32.713,-1.836 -61.786,23.381 -64.611,56.037 z"
         style="fill:#f28f62;fill-opacity:1;fill-rule:evenodd;stroke:none"
         transform="matrix(1.3333333,0,0,-1.3333333,259.97467,92.736267)"
         clip-path="url(#clipPath37)" />
      <path
         id="path38"
         d="m 0,0 118.952,6.672 6.369,-73.676 c 2.825,-32.657 -21.628,-60.876 -54.339,-62.711 v -0.001 c -1.819,-0.102 -3.622,-0.116 -5.415,-0.054 16.809,11.309 27.112,31.154 25.223,52.982 L 84.419,-3.11 0.675,-7.809 Z"
         style="fill:#e67748;fill-opacity:1;fill-rule:evenodd;stroke:none"
         transform="matrix(1.3333333,0,0,-1.3333333,259.97467,92.736267)"
         clip-path="url(#clipPath39)" />
      <path
         id="path40"
         d="m 0,0 8.206,75.684 -17.694,-9.83 -84.052,26.542 7.864,-10.814 h -21.134 l 14.253,-8.847 -57.018,-11.797 10.815,-11.796 20.766,-66.882 10.2,49.186 c 36.917,-9.484 66.648,-1.523 94.375,11.305 z"
         style="fill:#2f2825;fill-opacity:1;fill-rule:evenodd;stroke:none"
         transform="matrix(1.3333333,0,0,-1.3333333,424.67187,154.32613)"
         clip-path="url(#clipPath41)" />
      <path
         id="path42"
         d="m 0,0 c 3.64,0 6.607,4.026 6.607,8.964 0,4.937 -2.967,8.964 -6.607,8.964 -3.638,0 -6.604,-4.027 -6.604,-8.964 C -6.604,4.026 -3.638,0 0,0"
         style="fill:#2f2825;fill-opacity:1;fill-rule:evenodd;stroke:none"
         transform="matrix(1.3333333,0,0,-1.3333333,351.86387,186.01947)"
         clip-path="url(#clipPath43)" />
      <path
         id="path44"
         d="m 0,0 c -1.764,-0.762 -3.81,0.051 -4.571,1.813 -0.76,1.763 0.053,3.809 1.815,4.569 l 16.999,7.361 c 0.71,0.307 1.467,0.358 2.165,0.195 l 0.002,0.009 7.112,-1.682 C 25.397,11.828 26.563,9.952 26.126,8.077 25.689,6.201 23.812,5.035 21.939,5.471 l -6.014,1.424 z"
         style="fill:#2f2825;fill-opacity:1;fill-rule:evenodd;stroke:none"
         transform="matrix(1.3333333,0,0,-1.3333333,323.43813,158.88147)"
         clip-path="url(#clipPath45)" />
      <path
         id="path46"
         d="m 0,0 c 3.636,0 6.604,4.027 6.604,8.964 0,4.938 -2.968,8.964 -6.604,8.964 -3.64,0 -6.606,-4.026 -6.606,-8.964 C -6.606,4.027 -3.64,0 0,0"
         style="fill:#2f2825;fill-opacity:1;fill-rule:evenodd;stroke:none"
         transform="matrix(1.3333333,0,0,-1.3333333,400.9316,175.30467)"
         clip-path="url(#clipPath47)" />
      <path
         id="path48"
         d="M 0,0 C 1.724,-0.239 2.929,-1.829 2.689,-3.554 2.452,-5.277 0.86,-6.482 -0.863,-6.242 l -6.68,0.947 -2.882,-1.791 c -1.482,-0.912 -3.419,-0.454 -4.332,1.025 -0.912,1.478 -0.455,3.418 1.024,4.33 l 3.711,2.303 c 0.626,0.436 1.413,0.647 2.227,0.534 z"
         style="fill:#2f2825;fill-opacity:1;fill-rule:evenodd;stroke:none"
         transform="matrix(1.3333333,0,0,-1.3333333,408.37307,131.86587)"
         clip-path="url(#clipPath49)" />
      <path
         id="path50"
         d="M 0,0 C -13.912,-16.983 -26.609,-20.822 -38.091,-11.405 -25.393,-7.603 -12.698,-3.801 0,0"
         style="fill:#ffffff;fill-opacity:1;fill-rule:evenodd;stroke:none"
         transform="matrix(1.3333333,0,0,-1.3333333,391.45573,234.6556)"
         clip-path="url(#clipPath51)" />
      <path
         id="path52"
         d="m 0,0 c 3.813,0 7.441,-4.044 8.11,-9.034 0.668,-4.99 -1.879,-9.035 -5.69,-9.035 -3.812,0 -7.441,4.045 -8.11,9.035 C -6.358,-4.044 -3.812,0 0,0"
         style="fill:#f28f62;fill-opacity:1;fill-rule:evenodd;stroke:none"
         transform="matrix(1.3333333,0,0,-1.3333333,379.35413,189.97853)"
         clip-path="url(#clipPath53)" />
    </g>
  </g>
</svg>
