<?xml version="1.0" encoding="UTF-8" standalone="no"?>
<!-- Created with Inkscape (http://www.inkscape.org/) -->

<svg
   version="1.1"
   id="svg4454"
   width="880"
   height="880"
   viewBox="0 0 880 880"
   sodipodi:docname="man-on-treadmill-publicdomainvectors.org.svg"
   inkscape:version="1.2 (dc2aedaf03, 2022-05-15)"
   xmlns:inkscape="http://www.inkscape.org/namespaces/inkscape"
   xmlns:sodipodi="http://sodipodi.sourceforge.net/DTD/sodipodi-0.dtd"
   xmlns="http://www.w3.org/2000/svg"
   xmlns:svg="http://www.w3.org/2000/svg">
  <defs
     id="defs4458">
    <clipPath
       clipPathUnits="userSpaceOnUse"
       id="clipPath4470">
      <path
         d="M 0,660 H 660 V 0 H 0 Z"
         id="path4468" />
    </clipPath>
  </defs>
  <sodipodi:namedview
     id="namedview4456"
     pagecolor="#ffffff"
     bordercolor="#000000"
     borderopacity="0.25"
     inkscape:showpageshadow="2"
     inkscape:pageopacity="0.0"
     inkscape:pagecheckerboard="0"
     inkscape:deskcolor="#d1d1d1"
     showgrid="false"
     inkscape:zoom="0.95113636"
     inkscape:cx="440.52569"
     inkscape:cy="440.52569"
     inkscape:window-width="1920"
     inkscape:window-height="1017"
     inkscape:window-x="-8"
     inkscape:window-y="-8"
     inkscape:window-maximized="1"
     inkscape:current-layer="g4462">
    <inkscape:page
       x="0"
       y="0"
       id="page4460"
       width="880"
       height="880" />
  </sodipodi:namedview>
  <g
     id="g4462"
     inkscape:groupmode="layer"
     inkscape:label="Page 1"
     transform="matrix(1.3333333,0,0,-1.3333333,0,880)">
    <g
       id="g4464">
      <g
         id="g4466"
         clip-path="url(#clipPath4470)">
        <g
           id="g4472"
           transform="translate(372.7744,93.4395)">
          <path
             d="m 0,0 c 147.484,0 267.775,7.238 267.775,16.113 0,8.875 -120.291,16.114 -267.775,16.114 -147.485,0 -267.776,-7.239 -267.776,-16.114 C -267.776,7.238 -147.485,0 0,0"
             style="fill:#adda1a;fill-opacity:1;fill-rule:evenodd;stroke:none"
             id="path4474" />
        </g>
        <g
           id="g4476"
           transform="translate(328.082,594.7822)">
          <path
             d="M 0,0 H 52.516 V -67.268 H 26.258 C 11.815,-67.268 0,-55.452 0,-41.008 Z"
             style="fill:#f5a683;fill-opacity:1;fill-rule:evenodd;stroke:none"
             id="path4478" />
        </g>
        <path
           d="m 349.878,505.269 h 30.72 v 52.968 h -30.72 z"
           style="fill:#f5a683;fill-opacity:1;fill-rule:evenodd;stroke:none"
           id="path4480" />
        <g
           id="g4482"
           transform="translate(443.1953,359.355)">
          <path
             d="m 0,0 -11.365,0.76 c -4.215,0.282 -7.432,3.962 -7.151,8.176 l 0.778,11.626 c 0.529,7.921 7.442,13.968 15.362,13.44 7.921,-0.529 13.969,-7.442 13.44,-15.363 L 10.428,9.121 C 10.068,3.746 5.377,-0.357 0,0"
             style="fill:#f5a683;fill-opacity:1;fill-rule:evenodd;stroke:none"
             id="path4484" />
        </g>
        <g
           id="g4486"
           transform="translate(439.4063,372.2163)">
          <path
             d="m 0,0 -14.532,0.972 c -1.891,0.126 -3.333,1.775 -3.206,3.665 l 0.583,8.72 c 0.33,4.94 4.643,8.713 9.585,8.383 l 8.983,-0.599 z"
             style="fill:#f5a683;fill-opacity:1;fill-rule:evenodd;stroke:none"
             id="path4488" />
        </g>
        <g
           id="g4490"
           transform="translate(449.1152,376.479)">
          <path
             d="M 0,0 -19.555,1.307 -17.559,31.165 1.995,29.86 Z"
             style="fill:#f5a683;fill-opacity:1;fill-rule:evenodd;stroke:none"
             id="path4492" />
        </g>
        <g
           id="g4494"
           transform="translate(464.8174,394.7808)">
          <path
             d="m 0,0 2.392,65.932 c 0.285,7.886 -4.544,14.773 -11.517,17.464 l -64.095,28.68 c -21.947,9.821 -35.996,-23.324 -14.712,-32.848 L -34.058,55.123 -36.01,1.308 Z"
             style="fill:#4e8398;fill-opacity:1;fill-rule:evenodd;stroke:none"
             id="path4496" />
        </g>
        <g
           id="g4498"
           transform="translate(246.3076,219.3359)">
          <path
             d="m 0,0 29.272,11.438 31.181,-0.137 c 15.521,-0.067 15.385,-32.574 0,-32.574 H 3.438 C -8.716,-21.273 -11.989,-4.686 0,0"
             style="fill:#db5b1d;fill-opacity:1;fill-rule:evenodd;stroke:none"
             id="path4500" />
        </g>
        <g
           id="g4502"
           transform="translate(279.1563,269.0391)">
          <path
             d="M 0,0 H 28.602 V -39.99 C 28.602,-49.523 0,-49.525 0,-39.99 Z"
             style="fill:#f5a683;fill-opacity:1;fill-rule:evenodd;stroke:none"
             id="path4504" />
        </g>
        <g
           id="g4506"
           transform="translate(262.3447,235.1406)">
          <path
             d="m 0,0 v 91.633 c 0,10.961 7.05,20.277 16.862,23.661 l 90.409,36.582 18.768,-46.333 -75.992,-30.75 V 0 Z"
             style="fill:#4e8398;fill-opacity:1;fill-rule:evenodd;stroke:none"
             id="path4508" />
        </g>
        <g
           id="g4510"
           transform="translate(561.2002,249.5469)">
          <path
             d="m 0,0 -16.163,26.951 -5.074,30.768 c -2.525,15.31 29.548,20.607 32.119,5.437 L 20.402,6.939 C 22.431,-5.041 6.622,-11.039 0,0"
             style="fill:#db5b1d;fill-opacity:1;fill-rule:evenodd;stroke:none"
             id="path4512" />
        </g>
        <g
           id="g4514"
           transform="translate(506.71,273.6348)">
          <path
             d="m 0,0 -4.775,28.199 39.428,6.678 C 44.054,36.469 48.83,8.27 39.43,6.678 Z"
             style="fill:#f5a683;fill-opacity:1;fill-rule:evenodd;stroke:none"
             id="path4516" />
        </g>
        <g
           id="g4518"
           transform="translate(542.9404,262.7188)">
          <path
             d="m 0,0 -90.347,-15.301 c -10.808,-1.83 -21.169,3.567 -26.144,12.676 l -51.165,83.032 42.549,26.241 43.006,-69.793 73.744,12.489 z"
             style="fill:#5799ae;fill-opacity:1;fill-rule:evenodd;stroke:none"
             id="path4520" />
        </g>
        <g
           id="g4522"
           transform="translate(351.4551,399.5981)">
          <path
             d="m 0,0 h 42.904 c 17.48,0 31.78,-14.3 31.78,-31.779 V -63.56 H 31.781 C 14.301,-63.56 0,-49.259 0,-31.779 Z"
             style="fill:#5799ae;fill-opacity:1;fill-rule:evenodd;stroke:none"
             id="path4524" />
        </g>
        <g
           id="g4526"
           transform="translate(353.8369,517.6514)">
          <path
             d="M 0,0 V 0 C 22.787,6.884 47.064,-6.126 53.946,-28.913 L 69.234,-79.52 c 6.885,-22.789 -6.127,-47.063 -28.914,-53.946 -22.788,-6.884 -47.062,6.126 -53.946,28.914 l -15.289,50.606 C -35.799,-31.159 -22.787,-6.884 0,0"
             style="fill:#5799ae;fill-opacity:1;fill-rule:evenodd;stroke:none"
             id="path4528" />
        </g>
        <g
           id="g4530"
           transform="translate(224.2686,519.4766)">
          <path
             d="m 0,0 7.631,8.458 c 2.829,3.134 7.711,3.386 10.846,0.556 L 27.13,1.208 c 5.894,-5.318 6.365,-14.491 1.048,-20.385 -5.32,-5.895 -14.49,-6.365 -20.387,-1.049 l -7.079,6.39 C -3.289,-10.227 -3.609,-4 0,0"
             style="fill:#f5a683;fill-opacity:1;fill-rule:evenodd;stroke:none"
             id="path4532" />
        </g>
        <g
           id="g4534"
           transform="translate(236.7158,514.4917)">
          <path
             d="m 0,0 9.757,10.815 c 1.267,1.405 3.456,1.518 4.862,0.25 L 21.108,5.21 c 3.678,-3.317 3.971,-9.041 0.655,-12.717 l -6.033,-6.685 z"
             style="fill:#f5a683;fill-opacity:1;fill-rule:evenodd;stroke:none"
             id="path4536" />
        </g>
        <g
           id="g4538"
           transform="translate(234.0547,504.229)">
          <path
             d="M 0,0 13.128,14.552 35.348,-5.497 22.221,-20.046 Z"
             style="fill:#f5a683;fill-opacity:1;fill-rule:evenodd;stroke:none"
             id="path4540" />
        </g>
        <g
           id="g4542"
           transform="translate(238.7119,480.5679)">
          <path
             d="m 0,0 50.307,-42.683 c 6.018,-5.105 14.416,-5.573 20.846,-1.761 l 62.195,32.594 c 21.297,11.162 3.958,42.708 -16.696,31.884 L 64.376,-7.362 23.314,27.476 Z"
             style="fill:#4e8398;fill-opacity:1;fill-rule:evenodd;stroke:none"
             id="path4544" />
        </g>
        <g
           id="g4546"
           transform="translate(340.0781,619.1484)">
          <path
             d="m 0,0 h 12.182 c 10.632,0 19.334,-8.7 19.334,-19.334 0,-10.633 -8.702,-19.333 -19.334,-19.333 H 0 c -10.634,0 -19.334,8.7 -19.334,19.333 C -19.334,-8.7 -10.634,0 0,0"
             style="fill:#463d3b;fill-opacity:1;fill-rule:evenodd;stroke:none"
             id="path4548" />
        </g>
        <g
           id="g4550"
           transform="translate(373.4473,605.9053)">
          <path
             d="m 0,0 h 0.001 c 8.011,0 14.564,-6.554 14.564,-14.563 v -28.076 c 0,-8.01 -6.553,-14.564 -14.564,-14.564 H 0 c -8.012,0 -14.566,6.554 -14.566,14.564 v 28.076 C -14.566,-6.554 -8.012,0 0,0"
             style="fill:#463d3b;fill-opacity:1;fill-rule:evenodd;stroke:none"
             id="path4552" />
        </g>
        <g
           id="g4554"
           transform="translate(363.7139,546.583)">
          <path
             d="M 0,0 C 6.382,0 11.588,6.634 11.588,14.764 11.588,22.897 6.382,29.53 0,29.53 -6.381,29.53 -11.586,22.897 -11.586,14.764 -11.586,6.634 -6.381,0 0,0"
             style="fill:#f5a683;fill-opacity:1;fill-rule:evenodd;stroke:none"
             id="path4556" />
        </g>
        <g
           id="g4558"
           transform="translate(181.2813,176.7539)">
          <path
             d="m 0,0 393.03,-17.006 c 38.072,-1.646 32.28,-50.431 0,-50.431 H 0 c -47.427,0 -49.401,69.574 0,67.437"
             style="fill:#463d3b;fill-opacity:1;fill-rule:evenodd;stroke:none"
             id="path4560" />
        </g>
        <g
           id="g4562"
           transform="translate(178.2236,123.6523)">
          <path
             d="m 0,0 c 11.094,0 20.143,9.049 20.143,20.141 0,11.095 -9.049,20.144 -20.143,20.144 -11.096,0 -20.143,-9.049 -20.143,-20.144 C -20.143,9.049 -11.096,0 0,0"
             style="fill:#948681;fill-opacity:1;fill-rule:evenodd;stroke:none"
             id="path4564" />
        </g>
        <g
           id="g4566"
           transform="translate(575.6211,119.1504)">
          <path
             d="m 0,0 c 8.744,0 15.875,7.133 15.875,15.877 0,8.742 -7.131,15.875 -15.875,15.875 -8.743,0 -15.875,-7.133 -15.875,-15.875 C -15.875,7.133 -8.743,0 0,0"
             style="fill:#948681;fill-opacity:1;fill-rule:evenodd;stroke:none"
             id="path4568" />
        </g>
        <g
           id="g4570"
           transform="translate(246.1025,152.2578)">
          <path
             d="m 0,0 c 3.168,-9.354 -1.843,-19.502 -11.194,-22.672 -9.353,-3.168 -19.504,1.844 -22.673,11.195 l -79.878,234.993 -73.837,61.229 c -7.613,6.301 -8.678,17.579 -2.379,25.191 6.299,7.611 17.577,8.678 25.19,2.379 l 81.616,-67.682 z"
             style="fill:#b2a29e;fill-opacity:1;fill-rule:evenodd;stroke:none"
             id="path4572" />
        </g>
        <g
           id="g4574"
           transform="translate(148.5264,375.1812)">
          <path
             d="m 0,0 c -6.158,-0.483 -11.544,4.119 -12.025,10.276 -0.484,6.16 4.118,11.545 10.276,12.027 l 82.466,6.636 C 86.875,29.421 92.26,24.82 92.742,18.661 93.226,12.503 88.625,7.118 82.466,6.636 Z"
             style="fill:#b2a29e;fill-opacity:1;fill-rule:evenodd;stroke:none"
             id="path4576" />
        </g>
      </g>
    </g>
  </g>
</svg>
